<svg id="Layer_1" data-name="Layer 1" xmlns="http://www.w3.org/2000/svg" width="875.8" height="590.9" viewBox="0 0 875.8 590.9">
  <defs>
    <style>
      .cls-1 {
        fill: #f0c808;
      }

      .cls-2 {
        fill: #fff;
      }

      .cls-3 {
        fill: #00bff3;
      }

      .cls-4 {
        fill: #ff715b;
      }

      .cls-5 {
        fill: #4c5b5c;
      }
    </style>
  </defs>
  <g>
    <circle class="cls-1" cx="90" cy="510.1" r="7.5"/>
    <circle class="cls-1" cx="785.3" cy="510.1" r="7.5"/>
    <path class="cls-2" d="M817.4,390.6v41.3H777.1V384.7a2.6,2.6,0,0,0-2.6-2.6H693.1a2.6,2.6,0,0,0-2.6,2.6v47.2H650.2V394.1a22.4,22.4,0,0,0,7.3,1.2,24.4,24.4,0,0,0,23.4-17.6h20.8a2.5,2.5,0,0,0,2.6-2.6V359.8c0-8.7-8.1-15.8-18.2-15.8a18.7,18.7,0,0,0-14.8,6.7,24.4,24.4,0,0,0-13.8-4.2,25.3,25.3,0,0,0-7.3,1.1v-7.1H815.4a35,35,0,0,0,2,50.1Zm-17.8-15.5V359.8c0-8.7-8.1-15.8-18.2-15.8s-18.1,7.1-18.1,15.8v15.3a2.5,2.5,0,0,0,2.6,2.6H797A2.5,2.5,0,0,0,799.6,375.1Z"/>
    <rect class="cls-2" x="650.2" y="269.9" width="167.2" height="9.39"/>
    <path class="cls-2" d="M604.7,383.9v48H491.5V415.4h99.1a2.5,2.5,0,0,0,2.6-2.6V384.3a2.5,2.5,0,0,0-2.6-2.6H491.5V357a18.7,18.7,0,0,0,16.2-1.2h46a24.3,24.3,0,0,0,39,16.2Zm-15.1-60.6H506.5l9.8,15.1a2.9,2.9,0,0,1,.4,1.6v.2a17.6,17.6,0,0,1-3.3,10.4h40.1a24.4,24.4,0,0,1,48.7,2.1,24.1,24.1,0,0,1-5.3,15.1l7.8,7.8V339.2A35.2,35.2,0,0,1,589.6,323.3ZM455.2,269.9v12.8h23.4a2.7,2.7,0,0,1,2.2,1.1l3.7,5.7H590.6l.9.2a34.7,34.7,0,0,1,13.2-12.3v-7.5Z"/>
    <path class="cls-2" d="M486.3,415.4v16.5H433.1V415.2a10.5,10.5,0,0,0,8.3-10.2,10.4,10.4,0,0,0-8.3-10.1V375.6a2.5,2.5,0,0,0-2.6-2.6H393.3a2.5,2.5,0,0,0-2.6,2.6v56.3H340.1V356.6a18.1,18.1,0,0,0,8.8-8.9,18.3,18.3,0,0,0,16.6,10.6,18.5,18.5,0,0,0,14.4-6.9,15.1,15.1,0,0,0,2.2-3.7,23.1,23.1,0,0,0,2.9,4.5,18.7,18.7,0,0,0,13.8,6.1,18.3,18.3,0,0,0,16.6-10.6,18.3,18.3,0,0,0,33.2,0,21.5,21.5,0,0,0,1.4,2.6,21,21,0,0,0,5.2,5.1,18.9,18.9,0,0,0,10,2.9,18.2,18.2,0,0,0,9.3-2.5,18.9,18.9,0,0,0,5.7-5.2,13.5,13.5,0,0,0,1.6-2.9,20.1,20.1,0,0,0,1.7,2.9,16.7,16.7,0,0,0,2.8,3.1v61.7Zm-15-22.9v-7.8a9.4,9.4,0,0,0-.5-3,10.7,10.7,0,0,0-10.4-7.8,10.3,10.3,0,0,0-5.2,1.3,10.6,10.6,0,0,0-5.2,6.5,9.5,9.5,0,0,0-.4,3v7.8a9.9,9.9,0,0,0,.4,3,10.9,10.9,0,0,0,5.2,6.5,11.4,11.4,0,0,0,5.2,1.3,10.5,10.5,0,0,0,6.3-2A10.8,10.8,0,0,0,471.3,392.5Zm-94.5,0v-7.8a10.8,10.8,0,1,0-21.6,0v7.8a10.8,10.8,0,0,0,21.6,0Z"/>
    <path class="cls-1" d="M485.6,342.8h25.7a12.7,12.7,0,0,1-5.1,7.8,12.9,12.9,0,0,1-7.7,2.5,13.6,13.6,0,0,1-7-1.9l-.8-.6a13.2,13.2,0,0,1-4.4-5.5A20.2,20.2,0,0,1,485.6,342.8Z"/>
    <path class="cls-1" d="M452.4,342.8h25.7a13.1,13.1,0,0,1-12.9,10.3h-.4a13.3,13.3,0,0,1-9.6-4.5A12.6,12.6,0,0,1,452.4,342.8Z"/>
    <path class="cls-1" d="M419.2,342.8h25.6a13.1,13.1,0,0,1-25.6,0Z"/>
    <path class="cls-1" d="M385.9,342.8h25.7a13.2,13.2,0,0,1-25.7,0Z"/>
    <path class="cls-1" d="M319.5,342.8h25.6a12.9,12.9,0,0,1-5,7.8,13.6,13.6,0,0,1-5.2,2.3,11,11,0,0,1-2.6.2A13,13,0,0,1,319.5,342.8Z"/>
    <path class="cls-1" d="M352.7,342.8h25.7a13.2,13.2,0,0,1-12.9,10.3A13,13,0,0,1,352.7,342.8Z"/>
    <path class="cls-2" d="M236.9,377v54.9H219.6V373.1l1.1-1.1a24.2,24.2,0,0,0,14.9,5.1Z"/>
    <path class="cls-2" d="M334.9,358.2v73.7H316.2V415.1a10.4,10.4,0,0,0,0-20.1V375.6a2.6,2.6,0,0,0-2.6-2.6H276.3a2.6,2.6,0,0,0-2.6,2.6v56.3H242.1V376.2A24.5,24.5,0,0,0,260,352.7a24.1,24.1,0,0,0-11.1-20.4h69.5l-4,6.1a2.9,2.9,0,0,0-.4,1.6v.2a18.2,18.2,0,0,0,18.3,18.1ZM219.6,166.8V286.4a35,35,0,0,1,0,43.8v4.1a24.3,24.3,0,0,1,16-6h1.3V301.1a2.5,2.5,0,0,1,2.6-2.6H340.4l7-10.7v-9.3H251.3a2.6,2.6,0,0,1-2.6-2.6V255.2h-9.6a2.6,2.6,0,0,1-2.6-2.6V224a2.5,2.5,0,0,1,2.6-2.6H360.4A2.6,2.6,0,0,1,363,224v28.6a2.6,2.6,0,0,1-2.6,2.6H253.9v18.1H350a2.6,2.6,0,0,1,2.6,2.6v6.8h27.3V166.8Zm134,41.2c-6.8,0-12.4-6.5-12.4-14.6s5.6-14.7,12.4-14.7,12.4,6.6,12.4,14.7S360.5,208,353.6,208Zm-28.7,2.1V176.3h5.2v33.8ZM299.8,208c-6.9,0-12.4-6.5-12.4-14.6s5.5-14.7,12.4-14.7,12.4,6.6,12.4,14.7S306.6,208,299.8,208Zm-36.1,0c-6.8,0-12.4-6.5-12.4-14.6s5.6-14.7,12.4-14.7,12.4,6.6,12.4,14.7S270.6,208,263.7,208Zm-30.3,2.1V176.3h5.2v33.8Zm113-16.7c0,5.2,3.3,9.4,7.2,9.4s7.2-4.2,7.2-9.4-3.2-9.5-7.2-9.5S346.4,188.1,346.4,193.4Zm-89.9,0c0,5.2,3.3,9.4,7.2,9.4s7.2-4.2,7.2-9.4-3.2-9.5-7.2-9.5S256.5,188.1,256.5,193.4Zm36.1,0c0,5.2,3.2,9.4,7.2,9.4s7.2-4.2,7.2-9.4-3.3-9.5-7.2-9.5S292.6,188.1,292.6,193.4Z"/>
    <path class="cls-2" d="M167.6,392.3v39.6H153l-.2-36.8,3.1.2A24.5,24.5,0,0,0,167.6,392.3Zm-91.4,8.8,57-21.2a24.4,24.4,0,0,1-1.7-9,24,24,0,0,1,6.2-16.2L76.2,380.8Zm81.1-92.8a34.7,34.7,0,0,1,10.3-24.8V239.6L56.2,291.8v45a34.9,34.9,0,0,1,0,55.6v39.5H71V379.1a2.6,2.6,0,0,1,1.5-2.4l76-32.3V315.5l-73.9,33a2.5,2.5,0,0,1-2.5-.2,2.7,2.7,0,0,1-1.1-2.2V315.8a2.8,2.8,0,0,1,1.5-2.4L134,284.9a16.4,16.4,0,0,1-.2-2.2,10.4,10.4,0,0,1,20.8,0,10.5,10.5,0,0,1-10.4,10.4,10.3,10.3,0,0,1-7.8-3.6l-60.2,28v24.6l73.9-33a2.3,2.3,0,0,1,2.4.2,2.5,2.5,0,0,1,1.2,2.2v35.1h2.2a24.5,24.5,0,0,1,11.7,3V333.1A35,35,0,0,1,157.3,308.3Z"/>
    <path class="cls-1" d="M144.2,277.5a5.2,5.2,0,0,1,5.2,5.2,5.3,5.3,0,0,1-5.2,5.2,5,5,0,0,1-2.7-.8,5.2,5.2,0,0,1-2.5-4.4v-.2A5.1,5.1,0,0,1,144.2,277.5Z"/>
    <path class="cls-1" d="M736.4,405.7a5.3,5.3,0,0,1,2.6,4.5,5.2,5.2,0,0,1-2.6,4.5,4.8,4.8,0,0,1-2.6.7,4.6,4.6,0,0,1-2.6-.7,5,5,0,0,1-2.6-4.5,5.1,5.1,0,0,1,2.6-4.5,5.6,5.6,0,0,1,2.6-.7A5.9,5.9,0,0,1,736.4,405.7Z"/>
    <path class="cls-3" d="M731.2,420.3v11.6H695.7V387.3h35.5v12.9a10.4,10.4,0,0,0,0,20.1Z"/>
    <path class="cls-3" d="M771.9,387.3v44.6H736.4V420.3a10.4,10.4,0,0,0,0-20.1V387.3Z"/>
    <path class="cls-1" d="M699.1,359.8v12.7H681.9v-1.6a24,24,0,0,0-6.7-16.8,13.6,13.6,0,0,1,10.9-4.9C693.3,349.2,699.1,353.9,699.1,359.8Z"/>
    <path class="cls-1" d="M794.4,359.8v12.7H768.5V359.8c0-5.9,5.8-10.6,12.9-10.6S794.4,353.9,794.4,359.8Z"/>
    <path class="cls-4" d="M869.9,364.6a29.1,29.1,0,0,1-26.2,28.9V372.7a8.7,8.7,0,1,0-5.8,0v20.8a28.5,28.5,0,0,1-15.3-6.2,29.5,29.5,0,0,1-5.2-5.4,29.1,29.1,0,0,1,0-34.6,26.6,26.6,0,0,1,5.2-5.4,13.3,13.3,0,0,1,1.9-1.4,30.4,30.4,0,0,1,11.1-4.6,29.6,29.6,0,0,1,5.2-.4A29.1,29.1,0,0,1,869.9,364.6Z"/>
    <polygon class="cls-3" points="806.6 242.2 806.6 264.8 774.5 264.8 774.1 230.3 806.6 242.2"/>
    <path class="cls-3" d="M792.9,300.9c4,0,7.2,4.2,7.2,9.4s-3.2,9.5-7.2,9.5-7.2-4.2-7.2-9.5S788.9,300.9,792.9,300.9Zm-61.1,9.4c0,5.3,3.3,9.5,7.2,9.5s7.3-4.2,7.3-9.5-3.3-9.4-7.3-9.4S731.8,305.1,731.8,310.3Zm-36,0c0,5.3,3.3,9.5,7.2,9.5s7.2-4.2,7.2-9.5-3.2-9.4-7.2-9.4S695.8,305.1,695.8,310.3Zm-48.9-25.8a35.4,35.4,0,0,1,9.3,23.8,35,35,0,0,1-12.8,27H821.7a30.2,30.2,0,0,1,8.7-4.1V284.5Zm146,40.5c-6.8,0-12.4-6.6-12.4-14.7s5.6-14.6,12.4-14.6,12.4,6.5,12.4,14.6S799.7,325,792.9,325Zm-28.7,2.1V293.3h5.2v33.8ZM739,325c-6.8,0-12.4-6.6-12.4-14.7s5.6-14.6,12.4-14.6,12.4,6.5,12.4,14.6S745.9,325,739,325Zm-36,0c-6.8,0-12.4-6.6-12.4-14.7s5.6-14.6,12.4-14.6,12.4,6.5,12.4,14.6S709.9,325,703,325Zm-30.3,2.1V293.3h5.2v33.8Z"/>
    <path class="cls-1" d="M628.1,308.7a6.9,6.9,0,0,1-4,6.3,7.2,7.2,0,0,1-2.9.6,7.3,7.3,0,0,1-3-.6,7,7,0,0,1-4-6.3,7,7,0,0,1,13.9,0Z"/>
    <path class="cls-4" d="M676,370.9v1.6a18,18,0,0,1-1.3,5.2,18.6,18.6,0,0,1-17.2,11.7,17.7,17.7,0,0,1-7.3-1.6,13.5,13.5,0,0,1-3.3-1.9l3.3-3.3,5-5a5.9,5.9,0,0,0,2.3.4,6.9,6.9,0,1,0-6.9-6.9,8.5,8.5,0,0,0,.4,2.3l-.8.9-5.2,5.2-2.3,2.3a18.1,18.1,0,0,1-3.7-10.9,18.3,18.3,0,0,1,6-13.6,18,18,0,0,1,5.2-3.4,17.7,17.7,0,0,1,7.3-1.5,18.3,18.3,0,0,1,11,3.6,18.4,18.4,0,0,1,7.5,14.9Z"/>
    <path class="cls-4" d="M638,284.5a29.1,29.1,0,0,1-.8,48.1,32,32,0,0,1-5.2,2.7,26.1,26.1,0,0,1-7.9,1.9V320.5a12.3,12.3,0,0,0,7.9-6.3,12.3,12.3,0,0,0,0-11,12.2,12.2,0,0,0-22.1,1,11.7,11.7,0,0,0,0,9,12.2,12.2,0,0,0,8.3,7.3v16.7a28.9,28.9,0,0,1-8.3-2.1,32.5,32.5,0,0,1-5.2-2.8,29.4,29.4,0,0,1-11.5-15.9,28.3,28.3,0,0,1,0-16.3,28.8,28.8,0,0,1,11.5-15.8,32.9,32.9,0,0,1,5.2-2.9,30.3,30.3,0,0,1,11.3-2.2,28.6,28.6,0,0,1,10.9,2.1A25.9,25.9,0,0,1,638,284.5Z"/>
    <path class="cls-4" d="M596.3,352.7a18.1,18.1,0,0,1-3.6,10.9l-8.4-8.4a5.9,5.9,0,0,0,.5-2.3,6.9,6.9,0,0,0-7-6.9,6.8,6.8,0,0,0-6.5,4.6,6.5,6.5,0,0,0,.3,5.2,6.8,6.8,0,0,0,6.2,4,6.4,6.4,0,0,0,2.4-.4l8.3,8.3a18,18,0,0,1-10.7,3.5,18.6,18.6,0,0,1-18.2-15.4,15.5,15.5,0,0,1-.3-3.1c0-.7.1-1.4.1-2.1a18.5,18.5,0,0,1,36.9,2.1Z"/>
    <rect class="cls-3" x="491.5" y="386.9" width="96.5" height="23.39"/>
    <path class="cls-3" d="M588,294.7V297a34.8,34.8,0,0,0-1.8,11.3,31.8,31.8,0,0,0,1.4,9.8H503.1l-15.2-23.4Z"/>
    <path class="cls-3" d="M605.1,248.4H454.4c1.7-32.7,34.8-58.8,75.3-58.8S603.4,215.7,605.1,248.4ZM564,239.1V207.2h-5.2v31.9Zm-16.5-16.3c0-9.5-8.1-17.2-18.2-17.2s-18.2,7.7-18.2,17.2,8.2,17.1,18.2,17.1S547.5,232.2,547.5,222.8Zm-46.8,16.3V207.2h-5.2v31.9Z"/>
    <ellipse class="cls-3" cx="529.3" cy="222.8" rx="13" ry="12"/>
    <path class="cls-3" d="M390,303.1c3.6,0,5.8,3.1,4.9,7.3s-5.5,8.7-9.9,8.7h0a4.8,4.8,0,0,1-5.1-4.7,3.3,3.3,0,0,1,0-1.4,6.5,6.5,0,0,1,.6-2.6,13.3,13.3,0,0,1,4.5-5.7A9.5,9.5,0,0,1,390,303.1Zm60,6.8c-1.7-4-5.7-6.8-9.2-6.8s-5.9,3.1-4.9,7.3,5.5,8.7,9.9,8.7A4.7,4.7,0,0,0,450,317a7.2,7.2,0,0,0,.3-6.6Zm46.9,8.2-15.2-23.4-3.4-5.2-1.1-1.6H353.5l-.9,1.5-5.2,7.9-.8,1.2-3.4,5.2-6.3,9.7-2,3.1L328,327.1l-3.4,5.2-3.2,4.9h188l-9.1-13.9Zm-18.8,9-2.2-3.8-3.1-5.2-.9-1.4-5.2-8.8-5.9-9.9h4.5l1.4,2.2,5.2,8,6.5,9.9,3.4,5.2,2.4,3.8ZM450,324.4a9.5,9.5,0,0,1-2.5.3c-7.9,0-15.5-7-16.8-14.3s3-10.9,9-10.9a17.5,17.5,0,0,1,10.3,4,18.8,18.8,0,0,1,5.2,6.4l.2.5c1.9,4,1.7,7.9-.2,10.7A8.3,8.3,0,0,1,450,324.4Zm-37.7,2.7.8-29.1h4.5l.9,29.1ZM385,324.6h-1.8a11.4,11.4,0,0,1-3.3-.5c-5.5-1.7-7.4-7.6-4.6-13.8a18.5,18.5,0,0,1,4.6-6.1,18.9,18.9,0,0,1,5.1-3.4,15,15,0,0,1,6.1-1.4c5.9,0,10,4.6,8.9,10.9S392.3,323.6,385,324.6Zm-26.8-6.8-5.5,9.3h-6.2l11.7-17.9,5.2-8,2-3.2h4.5l-6.5,11Z"/>
    <path class="cls-1" d="M433.1,400.3a5.2,5.2,0,0,1,3.1,4.7,5.3,5.3,0,0,1-3.1,4.8,4.9,4.9,0,0,1-2.1.4,5.4,5.4,0,0,1-3.1-.9,5.4,5.4,0,0,1,0-8.5,5.5,5.5,0,0,1,3.1-1A5,5,0,0,1,433.1,400.3Z"/>
    <path class="cls-3" d="M427.9,415v16.9h-32V378.2h32v16.9a10.4,10.4,0,0,0,0,19.9Z"/>
    <path class="cls-1" d="M466.1,384.7v7.8a5.7,5.7,0,0,1-10.9,2.1,7.1,7.1,0,0,1-.4-2.1v-7.8a7.8,7.8,0,0,1,.4-2.2,5.7,5.7,0,0,1,10.9,2.2Z"/>
    <path class="cls-1" d="M371.6,384.7v7.8a5.6,5.6,0,0,1-11.2,0v-7.8a5.6,5.6,0,0,1,11.2,0Z"/>
    <path class="cls-1" d="M316.2,400.5a5.3,5.3,0,0,1,2.6,4.5,5.2,5.2,0,0,1-2.6,4.5,4.8,4.8,0,0,1-2.6.7,4.4,4.4,0,0,1-2.6-.7,5,5,0,0,1-2.6-4.5,5.1,5.1,0,0,1,2.6-4.5,5.3,5.3,0,0,1,2.6-.7A5.9,5.9,0,0,1,316.2,400.5Z"/>
    <path class="cls-4" d="M311,415.1v16.8H278.9V378.2H311V395a10.4,10.4,0,0,0,0,20.1Z"/>
    <polygon class="cls-3" points="337 303.7 321.8 327.1 242.1 327.1 242.1 303.7 337 303.7"/>
    <rect class="cls-3" x="241.7" y="226.6" width="116.1" height="23.39"/>
    <rect class="cls-3" x="208.3" y="143.4" width="182.8" height="18.2"/>
    <path class="cls-4" d="M242.1,335.4a18.4,18.4,0,0,1-5.2,35.7h-1.3a18,18,0,0,1-10.7-3.5l8.3-8.3a6.7,6.7,0,0,0,2.4.4h1.3a7.1,7.1,0,0,0,5.2-4.4,6.4,6.4,0,0,0,.4-2.4,6.1,6.1,0,0,0-.4-2.4,6.7,6.7,0,0,0-5.2-4.4h-1.3a6.9,6.9,0,0,0-6.9,6.9,5.9,5.9,0,0,0,.4,2.3l-8.4,8.4a16.3,16.3,0,0,1-1.1-1.7,18.4,18.4,0,0,1-2.5-9.2,17.9,17.9,0,0,1,2.5-9.2,18.3,18.3,0,0,1,16-9.3h1.3A18.7,18.7,0,0,1,242.1,335.4Z"/>
    <path class="cls-4" d="M172.8,363.4a18.3,18.3,0,0,1,1.6,7.5,19,19,0,0,1-1.6,7.5,37.9,37.9,0,0,1-2,3.4l-3.2-3.2-5.2-5.2a5.9,5.9,0,0,0,.4-2.3,7,7,0,0,0-13.9,0,8.8,8.8,0,0,0,.6,2.8,7.6,7.6,0,0,0,3.1,3.3,7.3,7.3,0,0,0,3.3.8,5.9,5.9,0,0,0,2.3-.4l8.4,8.3a18.3,18.3,0,0,1-10.7,3.5,16.6,16.6,0,0,1-3.2-.3,18.7,18.7,0,0,1-5.2-1.7,18.4,18.4,0,0,1-6.1-5,17,17,0,0,1-2.6-4.5,18.2,18.2,0,0,1-1.4-7,18.5,18.5,0,0,1,18.5-18.5,18,18,0,0,1,11.7,4.2A18.5,18.5,0,0,1,172.8,363.4Z"/>
    <path class="cls-1" d="M199.2,308.7a7,7,0,0,1-4.4,6.5,8.5,8.5,0,0,1-2.3.4h-.2a7.3,7.3,0,0,1-3-.6l-.4-.2a7.1,7.1,0,0,1-3.6-6.1,7,7,0,0,1,13.9,0Z"/>
    <path class="cls-4" d="M219.6,298.1a29.5,29.5,0,0,1,0,20.3,30.1,30.1,0,0,1-5.2,8.8,29.2,29.2,0,0,1-19.2,10V320.5a12.2,12.2,0,0,0,9.2-11.8,12.2,12.2,0,0,0-24.3,0,12.2,12.2,0,0,0,8.8,11.7h.4v16.7a28.7,28.7,0,0,1-16.5-7.3,28.1,28.1,0,0,1-5.2-6.2,29.1,29.1,0,0,1-4.4-15.4,28.6,28.6,0,0,1,4.4-15.4,28.1,28.1,0,0,1,5.2-6.2,28.7,28.7,0,0,1,19.5-7.5,29.2,29.2,0,0,1,22.1,10.1A32.4,32.4,0,0,1,219.6,298.1Z"/>
    <path class="cls-1" d="M114.1,410.3a4.2,4.2,0,0,1,1.7,3.4,4.6,4.6,0,0,1-1.7,3.5,5,5,0,0,1-2.6.8,4.5,4.5,0,0,1-2.6-.8,4.4,4.4,0,0,1-1.8-3.5,4,4,0,0,1,1.8-3.4,3.9,3.9,0,0,1,2.6-.9A4.3,4.3,0,0,1,114.1,410.3Z"/>
    <path class="cls-3" d="M109,431.9H76.2V406.6l32.7-12.1v10.9a8.8,8.8,0,0,0-6.1,8.3,8.7,8.7,0,0,0,6.1,8.3v9A2.8,2.8,0,0,0,109,431.9Z"/>
    <path class="cls-3" d="M147.6,393.8l.2,38.1H113.9a2.9,2.9,0,0,0,.2-.9v-9a8.6,8.6,0,0,0,6-8.3,8.7,8.7,0,0,0-6-8.3V392.6l21.6-8.1A23.9,23.9,0,0,0,147.6,393.8Z"/>
    <path class="cls-1" d="M65.8,185.4a6.1,6.1,0,0,1-2,4.4,5.9,5.9,0,0,1-3,1.6H59.7a6.1,6.1,0,1,1,6.1-6.1Z"/>
    <path class="cls-3" d="M100.6,198.5a28.2,28.2,0,0,1-10.9,36.4,28.1,28.1,0,0,1-37.2-7.5l22.7-13.6,1.8-1.1Z"/>
    <path class="cls-4" d="M64.1,364.6a28.9,28.9,0,0,1-7.9,19.9,31.8,31.8,0,0,1-5.2,4.4,27.8,27.8,0,0,1-13,4.6V372.7a8.8,8.8,0,1,0-5.9,0v20.8A29.1,29.1,0,1,1,51,340.3a27.5,27.5,0,0,1,5.2,4.4A28.9,28.9,0,0,1,64.1,364.6Z"/>
    <path class="cls-5" d="M799.6,359.8v15.3a2.5,2.5,0,0,1-2.6,2.6H765.9a2.5,2.5,0,0,1-2.6-2.6V359.8c0-8.7,8.1-15.8,18.1-15.8S799.6,351.1,799.6,359.8Zm-5.2,12.7V359.8c0-5.9-5.8-10.6-13-10.6s-12.9,4.7-12.9,10.6v12.7Zm-1.5-76.8c6.8,0,12.4,6.5,12.4,14.6S799.7,325,792.9,325s-12.4-6.6-12.4-14.7S786.1,295.7,792.9,295.7Zm7.2,14.6c0-5.2-3.2-9.4-7.2-9.4s-7.2,4.2-7.2,9.4,3.2,9.5,7.2,9.5S800.1,315.6,800.1,310.3Zm-35.9-17v33.8h5.2V293.3ZM739,295.7c6.9,0,12.4,6.5,12.4,14.6S745.9,325,739,325s-12.4-6.6-12.4-14.7S732.2,295.7,739,295.7Zm7.3,14.6c0-5.2-3.3-9.4-7.3-9.4s-7.2,4.2-7.2,9.4,3.3,9.5,7.2,9.5S746.3,315.6,746.3,310.3ZM703,295.7c6.9,0,12.4,6.5,12.4,14.6S709.9,325,703,325s-12.4-6.6-12.4-14.7S696.2,295.7,703,295.7Zm7.2,14.6c0-5.2-3.2-9.4-7.2-9.4s-7.2,4.2-7.2,9.4,3.3,9.5,7.2,9.5S710.2,315.6,710.2,310.3Zm-37.5-17v33.8h5.2V293.3ZM610.3,251a2.6,2.6,0,0,1-2.6,2.6H451.8a2.6,2.6,0,0,1-2.6-2.6c0-36,34.7-65.5,77.9-66.6V162.1a10.4,10.4,0,0,1,2.6-20.5,10.4,10.4,0,0,1,2.6,20.5v22.3C575.6,185.5,610.3,215,610.3,251Zm-155.9-2.6H605.1c-1.7-32.7-34.9-58.8-75.4-58.8S456.1,215.7,454.4,248.4Zm104.4-41.2v31.9H564V207.2Zm-29.5-1.6c10.1,0,18.2,7.7,18.2,17.2s-8.1,17.1-18.2,17.1-18.2-7.7-18.2-17.1S519.3,205.6,529.3,205.6Zm13,17.2c0-6.7-5.8-12-13-12s-13,5.3-13,12,5.8,11.9,13,11.9S542.3,229.4,542.3,222.8Zm-46.8-15.6v31.9h5.2V207.2ZM471.3,384.7v7.8a10.8,10.8,0,0,1-4.6,8.8,10.5,10.5,0,0,1-6.3,2,11.4,11.4,0,0,1-5.2-1.3,10.9,10.9,0,0,1-5.2-6.5,9.9,9.9,0,0,1-.4-3v-7.8a9.5,9.5,0,0,1,.4-3,10.6,10.6,0,0,1,5.2-6.5,10.3,10.3,0,0,1,5.2-1.3,10.7,10.7,0,0,1,10.4,7.8A9.4,9.4,0,0,1,471.3,384.7Zm-5.2,7.8v-7.8a5.7,5.7,0,0,0-10.9-2.2,7.8,7.8,0,0,0-.4,2.2v7.8a7.1,7.1,0,0,0,.4,2.1,5.7,5.7,0,0,0,10.9-2.1Zm-89.3-7.8v7.8a10.8,10.8,0,0,1-21.6,0v-7.8a10.8,10.8,0,1,1,21.6,0Zm-5.2,7.8v-7.8a5.6,5.6,0,0,0-11.2,0v7.8a5.6,5.6,0,0,0,11.2,0Zm106.8-74.4-6.5-9.9-5.2-8-1.4-2.2h-4.5l5.9,9.9,5.2,8.8.9,1.4,3.1,5.2,2.2,3.8h6.1l-2.4-3.8Zm-23-7.7c1.9,4,1.7,7.9-.2,10.7a8.3,8.3,0,0,1-5.2,3.3,9.5,9.5,0,0,1-2.5.3c-7.9,0-15.5-7-16.8-14.3s3-10.9,9-10.9a17.5,17.5,0,0,1,10.3,4,18.8,18.8,0,0,1,5.2,6.4ZM450,317a7.2,7.2,0,0,0,.3-6.6l-.3-.5c-1.7-4-5.7-6.8-9.2-6.8s-5.9,3.1-4.9,7.3,5.5,8.7,9.9,8.7A4.7,4.7,0,0,0,450,317Zm-36.9-19-.8,29.1h6.2l-.9-29.1Zm-22,1.5c5.9,0,10,4.6,8.9,10.9s-7.7,13.2-15,14.2h-1.8a11.4,11.4,0,0,1-3.3-.5c-5.5-1.7-7.4-7.6-4.6-13.8a18.5,18.5,0,0,1,4.6-6.1,18.9,18.9,0,0,1,5.1-3.4A15,15,0,0,1,391.1,299.5Zm3.8,10.9c.9-4.2-1.3-7.3-4.9-7.3a9.5,9.5,0,0,0-5,1.6,13.3,13.3,0,0,0-4.5,5.7,6.5,6.5,0,0,0-.6,2.6,3.3,3.3,0,0,0,0,1.4,4.8,4.8,0,0,0,5.1,4.7h0C389.4,319.1,393.8,315,394.9,310.4ZM365.4,298l-2,3.2-5.2,8-11.7,17.9h6.2l5.5-9.3,5.2-8.8,6.5-11ZM353.6,178.7c6.9,0,12.4,6.6,12.4,14.7S360.5,208,353.6,208s-12.4-6.5-12.4-14.6S346.8,178.7,353.6,178.7Zm7.2,14.7c0-5.3-3.2-9.5-7.2-9.5s-7.2,4.2-7.2,9.5,3.3,9.4,7.2,9.4S360.8,198.6,360.8,193.4Zm-35.9-17.1v33.8h5.2V176.3Zm-25.1,2.4c6.8,0,12.4,6.6,12.4,14.7S306.6,208,299.8,208s-12.4-6.5-12.4-14.6S292.9,178.7,299.8,178.7Zm7.2,14.7c0-5.3-3.3-9.5-7.2-9.5s-7.2,4.2-7.2,9.5,3.2,9.4,7.2,9.4S307,198.6,307,193.4Zm-43.3-14.7c6.9,0,12.4,6.6,12.4,14.7S270.6,208,263.7,208s-12.4-6.5-12.4-14.6S256.9,178.7,263.7,178.7Zm7.2,14.7c0-5.3-3.2-9.5-7.2-9.5s-7.2,4.2-7.2,9.5,3.3,9.4,7.2,9.4S270.9,198.6,270.9,193.4Zm-37.5-17.1v33.8h5.2V176.3ZM5.9,364.6a29.1,29.1,0,0,0,26.2,28.9V372.7a8.7,8.7,0,1,1,5.9,0v20.8a27.8,27.8,0,0,0,13-4.6,31.8,31.8,0,0,0,5.2-4.4,29,29,0,0,0,0-39.8,27.5,27.5,0,0,0-5.2-4.4A29.1,29.1,0,0,0,5.9,364.6Zm869.9,0a35.1,35.1,0,0,1-32.1,34.9v32.4h19.2a2.6,2.6,0,0,1,2.6,2.6v75.8a2.6,2.6,0,0,1-2.6,2.6H798.3a13.3,13.3,0,1,1,.1-5.2h61.9V437.1H15.5v70.6H77a13.3,13.3,0,1,1,13,15.7,13.4,13.4,0,0,1-13-10.5H12.9a2.6,2.6,0,0,1-2.6-2.6V434.5a2.6,2.6,0,0,1,2.6-2.6H32.1V399.5A35,35,0,0,1,35,329.6a34.4,34.4,0,0,1,16,3.9V294.2l-11.7,5.5v1.1a10.4,10.4,0,1,1-1.9-6l67.2-31.4L90.3,240.5a33.4,33.4,0,0,1-43.7-12.6,2.5,2.5,0,0,1,.8-3.5l23.7-14.3-8.5-13.8a13.5,13.5,0,0,1-2.9.4A11.3,11.3,0,1,1,71,185.4a11.1,11.1,0,0,1-3.8,8.4l8.4,13.6,24.7-14.8a2.2,2.2,0,0,1,1.9-.3,2.5,2.5,0,0,1,1.6,1.2,33.5,33.5,0,0,1-9,44.3l14.6,23.4,67.2-31.5a10.9,10.9,0,0,1-.4-2.5,10.4,10.4,0,1,1,2.8,7.1l-6.2,2.9v42a35.2,35.2,0,0,1,41.6,1.9V166.8h-8.7a2.6,2.6,0,0,1-2.6-2.6V140.8a2.6,2.6,0,0,1,2.6-2.6h188a2.5,2.5,0,0,1,2.6,2.6v23.4a2.6,2.6,0,0,1-2.6,2.6H385V282.7h65V267.3a2.6,2.6,0,0,1,2.6-2.5H607.3a2.6,2.6,0,0,1,2.6,2.5v7.8a34.8,34.8,0,0,1,11.3-1.8,35.2,35.2,0,0,1,19.7,6H645v-12a2.5,2.5,0,0,1,2.6-2.5H769.3l-.4-36.4-6.9-2.6a6.7,6.7,0,0,1-5.2,2.5,7,7,0,1,1,0-13.9,7,7,0,0,1,6.9,6.5l57.1,21a7.2,7.2,0,0,1,5.3-2.3,6.9,6.9,0,1,1-6.9,7.3l-7.4-2.8v20.7H820a2.6,2.6,0,0,1,2.6,2.5v12H833a2.6,2.6,0,0,1,2.6,2.6V330a29.6,29.6,0,0,1,5.2-.4A35,35,0,0,1,875.8,364.6Zm-32.1,28.9a29.1,29.1,0,0,0-2.9-58,29.6,29.6,0,0,0-5.2.4,30.4,30.4,0,0,0-11.1,4.6,13.3,13.3,0,0,0-1.9,1.4,26.6,26.6,0,0,0-5.2,5.4,29.1,29.1,0,0,0,0,34.6,29.5,29.5,0,0,0,5.2,5.4,28.5,28.5,0,0,0,15.3,6.2V372.7a8.7,8.7,0,1,1,5.8,0Zm-5.8,38.4V399.5a35.9,35.9,0,0,1-15.3-5v37.4Zm-7.5-100.7V284.5H646.9a35.4,35.4,0,0,1,9.3,23.8,35,35,0,0,1-12.8,27H821.7A30.2,30.2,0,0,1,830.4,331.2Zm-13,100.7V390.6a35,35,0,0,1-2-50.1H650.2v7.1a25.3,25.3,0,0,1,7.3-1.1,24.4,24.4,0,0,1,13.8,4.2,18.7,18.7,0,0,1,14.8-6.7c10.1,0,18.2,7.1,18.2,15.8v15.3a2.5,2.5,0,0,1-2.6,2.6H680.9a24.4,24.4,0,0,1-23.4,17.6,22.4,22.4,0,0,1-7.3-1.2v37.8h40.3V384.7a2.6,2.6,0,0,1,2.6-2.6h81.4a2.6,2.6,0,0,1,2.6,2.6v47.2Zm0-152.6v-9.4H650.2v9.4Zm-10.8-14.5V242.2l-32.5-11.9.4,34.5ZM792.9,510.1a7.6,7.6,0,1,0-7.6,7.5A7.6,7.6,0,0,0,792.9,510.1Zm-21-78.2V387.3H736.4v12.9a10.4,10.4,0,0,1,0,20.1v11.6ZM739,410.2a5.3,5.3,0,0,0-2.6-4.5,5.9,5.9,0,0,0-2.6-.7,5.6,5.6,0,0,0-2.6.7,5.1,5.1,0,0,0-2.6,4.5,5,5,0,0,0,2.6,4.5,4.6,4.6,0,0,0,2.6.7,4.8,4.8,0,0,0,2.6-.7A5.2,5.2,0,0,0,739,410.2Zm-7.8,21.7V420.3a10.4,10.4,0,0,1,0-20.1V387.3H695.7v44.6Zm-32.1-59.4V359.8c0-5.9-5.8-10.6-13-10.6a13.6,13.6,0,0,0-10.9,4.9,24,24,0,0,1,6.7,16.8v1.6Zm-23.1,0v-1.6a18.4,18.4,0,0,0-7.5-14.9,18.3,18.3,0,0,0-11-3.6,17.7,17.7,0,0,0-7.3,1.5,18,18,0,0,0-5.2,3.4,18.3,18.3,0,0,0-6,13.6,18.1,18.1,0,0,0,3.7,10.9l2.3-2.3,5.2-5.2.8-.9a8.5,8.5,0,0,1-.4-2.3,7,7,0,1,1,6.9,6.9,5.9,5.9,0,0,1-2.3-.4l-5,5-3.3,3.3a13.5,13.5,0,0,0,3.3,1.9,17.7,17.7,0,0,0,7.3,1.6,18.6,18.6,0,0,0,17.2-11.7A18,18,0,0,0,676,372.5Zm-25.7-64.2A29.3,29.3,0,0,0,638,284.5a25.9,25.9,0,0,0-5.9-3.2,28.6,28.6,0,0,0-10.9-2.1,30.3,30.3,0,0,0-11.3,2.2,32.9,32.9,0,0,0-5.2,2.9,28.8,28.8,0,0,0-11.5,15.8,28.3,28.3,0,0,0,0,16.3,29.4,29.4,0,0,0,11.5,15.9,32.5,32.5,0,0,0,5.2,2.8,28.9,28.9,0,0,0,8.3,2.1V320.5a12.2,12.2,0,0,1-8.3-7.3,11.7,11.7,0,0,1,0-9,12.2,12.2,0,0,1,22.1-1,12.3,12.3,0,0,1,0,11,12.3,12.3,0,0,1-7.9,6.3v16.7a26.1,26.1,0,0,0,7.9-1.9,32,32,0,0,0,5.2-2.7A29.1,29.1,0,0,0,650.3,308.3ZM645,431.9V391.8l-2.4-1.6-18.5,18.5v23.2Zm0-81.9v-9.5H634.8a34.3,34.3,0,0,1-10.7,2.6v57.3L638.4,386a24.5,24.5,0,0,1,6.6-36Zm-20.9-35a6.9,6.9,0,1,0-9.9-6.3,7,7,0,0,0,4,6.3,7.3,7.3,0,0,0,3,.6A7.2,7.2,0,0,0,624.1,315Zm-5.9,116.9V397.4l-8.3-8.3v42.8Zm0-42.8v-46a32.2,32.2,0,0,1-8.3-1.7v39.4Zm-13.5,42.8v-48l-12-11.9a24.3,24.3,0,0,1-39-16.2h-46a18.7,18.7,0,0,1-16.2,1.2v24.7h99.1a2.5,2.5,0,0,1,2.6,2.6v28.5a2.5,2.5,0,0,1-2.6,2.6H491.5v16.5Zm0-56.3V339.2a35.2,35.2,0,0,1-15.1-15.9H506.5l9.8,15.1a2.9,2.9,0,0,1,.4,1.6v.2a17.6,17.6,0,0,1-3.3,10.4h40.1a24.4,24.4,0,0,1,48.7,2.1,24.1,24.1,0,0,1-5.3,15.1Zm0-98.2v-7.5H455.2v12.8h23.4a2.7,2.7,0,0,1,2.2,1.1l3.7,5.7H590.6l.9.2A34.7,34.7,0,0,1,604.7,277.4Zm-12,86.2a18.1,18.1,0,0,0,3.6-10.9,18.5,18.5,0,0,0-36.9-2.1c0,.7-.1,1.4-.1,2.1a15.5,15.5,0,0,0,.3,3.1,18.6,18.6,0,0,0,18.2,15.4,18,18,0,0,0,10.7-3.5l-8.3-8.3a6.4,6.4,0,0,1-2.4.4,6.8,6.8,0,0,1-6.2-4,6.5,6.5,0,0,1-.3-5.2,6.8,6.8,0,0,1,6.5-4.6,6.9,6.9,0,0,1,7,6.9,5.9,5.9,0,0,1-.5,2.3ZM588,410.2V386.9H491.5v23.3ZM588,297v-2.3H487.9l15.2,23.4h84.5a31.8,31.8,0,0,1-1.4-9.8A34.8,34.8,0,0,1,588,297Zm-76.7,45.8H485.6a20.2,20.2,0,0,0,.7,2.3,13.2,13.2,0,0,0,4.4,5.5l.8.6a13.6,13.6,0,0,0,7,1.9,12.9,12.9,0,0,0,7.7-2.5A12.7,12.7,0,0,0,511.3,342.8Zm-1.9-5.6-9.1-13.9-3.4-5.2-15.2-23.4-3.4-5.2-1.1-1.6H353.5l-.9,1.5-5.2,7.9-.8,1.2-3.4,5.2-6.3,9.7-2,3.1L328,327.1l-3.4,5.2-3.2,4.9h188Zm-23.1,94.7V353.7a16.7,16.7,0,0,1-2.8-3.1,20.1,20.1,0,0,1-1.7-2.9,13.5,13.5,0,0,1-1.6,2.9,18.9,18.9,0,0,1-5.7,5.2,18.2,18.2,0,0,1-9.3,2.5,18.9,18.9,0,0,1-10-2.9,21,21,0,0,1-5.2-5.1,21.5,21.5,0,0,1-1.4-2.6,18.3,18.3,0,0,1-33.2,0,18.3,18.3,0,0,1-16.6,10.6,18.7,18.7,0,0,1-13.8-6.1,23.1,23.1,0,0,1-2.9-4.5,15.1,15.1,0,0,1-2.2,3.7,18.5,18.5,0,0,1-14.4,6.9,18.3,18.3,0,0,1-16.6-10.6,18.1,18.1,0,0,1-8.8,8.9v75.3h50.6V375.6a2.5,2.5,0,0,1,2.6-2.6h37.2a2.5,2.5,0,0,1,2.6,2.6v19.3a10.4,10.4,0,0,1,8.3,10.1,10.5,10.5,0,0,1-8.3,10.2v16.7Zm-8.2-89.1H452.4a12.6,12.6,0,0,0,2.8,5.8,13.3,13.3,0,0,0,9.6,4.5h.4a13.1,13.1,0,0,0,12.9-10.3Zm-33.3,0H419.2a13.1,13.1,0,0,0,25.6,0ZM436.2,405a5.2,5.2,0,0,0-3.1-4.7,5,5,0,0,0-2.1-.5,5.5,5.5,0,0,0-3.1,1,5.4,5.4,0,0,0,0,8.5,5.4,5.4,0,0,0,3.1.9,4.9,4.9,0,0,0,2.1-.4A5.3,5.3,0,0,0,436.2,405Zm-8.3,26.9V415a10.4,10.4,0,0,1,0-19.9V378.2h-32v53.7Zm-16.3-89.1H385.9a13.2,13.2,0,0,0,25.7,0ZM391.1,161.6V143.4H208.3v18.2ZM379.9,282.7V166.8H219.6V286.4a35,35,0,0,1,0,43.8v4.1a24.3,24.3,0,0,1,16-6h1.3V301.1a2.5,2.5,0,0,1,2.6-2.6H340.4l7-10.7v-9.3H251.3a2.6,2.6,0,0,1-2.6-2.6V255.2h-9.6a2.6,2.6,0,0,1-2.6-2.6V224a2.5,2.5,0,0,1,2.6-2.6H360.4A2.6,2.6,0,0,1,363,224v28.6a2.6,2.6,0,0,1-2.6,2.6H253.9v18.1H350a2.6,2.6,0,0,1,2.6,2.6v6.8Zm-1.5,60.1H352.7a13,13,0,0,0,12.8,10.3A13.2,13.2,0,0,0,378.4,342.8ZM357.8,250V226.6H241.7V250Zm-12.7,92.8H319.5a13,13,0,0,0,12.8,10.3,11,11,0,0,0,2.6-.2,13.6,13.6,0,0,0,5.2-2.3A12.9,12.9,0,0,0,345.1,342.8Zm-23.3-15.7L337,303.7H242.1v23.4Zm13.1,104.8V358.2h-2.6A18.2,18.2,0,0,1,314,340.2V340a2.9,2.9,0,0,1,.4-1.6l4-6.1H248.9A24.1,24.1,0,0,1,260,352.7a24.5,24.5,0,0,1-17.9,23.5v55.7h31.6V375.6a2.6,2.6,0,0,1,2.6-2.6h37.3a2.6,2.6,0,0,1,2.6,2.6V395a10.4,10.4,0,0,1,0,20.1v16.8ZM318.8,405a5.3,5.3,0,0,0-2.6-4.5,5.9,5.9,0,0,0-2.6-.7,5.3,5.3,0,0,0-2.6.7,5.1,5.1,0,0,0-2.6,4.5,5,5,0,0,0,2.6,4.5,4.4,4.4,0,0,0,2.6.7,4.8,4.8,0,0,0,2.6-.7A5.2,5.2,0,0,0,318.8,405ZM311,431.9V415.1a10.4,10.4,0,0,1,0-20.1V378.2H278.9v53.7Zm-56.9-79.2a18.5,18.5,0,0,0-12-17.3,18.7,18.7,0,0,0-5.2-1.2h-1.3a18.3,18.3,0,0,0-16,9.3,17.9,17.9,0,0,0-2.5,9.2,18.4,18.4,0,0,0,2.5,9.2,16.3,16.3,0,0,0,1.1,1.7l8.4-8.4a5.9,5.9,0,0,1-.4-2.3,6.9,6.9,0,0,1,6.9-6.9h1.3a6.7,6.7,0,0,1,5.2,4.4,6.1,6.1,0,0,1,.4,2.4,6.4,6.4,0,0,1-.4,2.4,7.1,7.1,0,0,1-5.2,4.4h-1.3a6.7,6.7,0,0,1-2.4-.4l-8.3,8.3a18,18,0,0,0,10.7,3.5h1.3a18.4,18.4,0,0,0,17.2-18.4Zm-17.2,79.2V377h-1.3a24.2,24.2,0,0,1-14.9-5.1l-1.1,1.1v58.8ZM221.4,308.3a31.2,31.2,0,0,0-1.8-10.2,32.4,32.4,0,0,0-5.2-8.8,29.2,29.2,0,0,0-22.1-10.1,28.7,28.7,0,0,0-19.5,7.5,28.1,28.1,0,0,0-5.2,6.2,28.6,28.6,0,0,0-4.4,15.4,29.1,29.1,0,0,0,4.4,15.4,28.1,28.1,0,0,0,5.2,6.2,28.7,28.7,0,0,0,16.5,7.3V320.5h-.4a12.1,12.1,0,0,1,3.4-23.8,12.1,12.1,0,0,1,12.1,12.1,12.2,12.2,0,0,1-9.2,11.8v16.7a29.2,29.2,0,0,0,19.2-10,30.1,30.1,0,0,0,5.2-8.8A31.1,31.1,0,0,0,221.4,308.3Zm-7,123.6V378.3l-19.2,19.1v34.5Zm0-62v-5.2a23.7,23.7,0,0,1-3.2-12,23.2,23.2,0,0,1,3.2-12v-5.3a35.5,35.5,0,0,1-19.2,7.7v46Zm-19.6-54.7a7,7,0,0,0,4.4-6.5,7,7,0,0,0-13.9,0,7.1,7.1,0,0,0,3.6,6.1l.4.2a7.3,7.3,0,0,0,3,.6h.2A8.5,8.5,0,0,0,194.8,315.2Zm-5.5,116.7V408.7l-16.5-16.5v39.7Zm0-31.5V343.1a33.8,33.8,0,0,1-16.5-5.8v16a24.4,24.4,0,0,1,7.5,17.6A24.1,24.1,0,0,1,175,386Zm-14.9-29.5a18.5,18.5,0,0,0-6.8-14.3,18,18,0,0,0-11.7-4.2,18.5,18.5,0,0,0-18.5,18.5,18.2,18.2,0,0,0,1.4,7,17,17,0,0,0,2.6,4.5,18.4,18.4,0,0,0,6.1,5,18.7,18.7,0,0,0,5.2,1.7,16.6,16.6,0,0,0,3.2.3,18.3,18.3,0,0,0,10.7-3.5l-8.4-8.3a5.9,5.9,0,0,1-2.3.4,7.3,7.3,0,0,1-3.3-.8,7.6,7.6,0,0,1-3.1-3.3,8.8,8.8,0,0,1-.6-2.8,7,7,0,0,1,13.9,0,5.9,5.9,0,0,1-.4,2.3l5.2,5.2,3.2,3.2a37.9,37.9,0,0,0,2-3.4A19,19,0,0,0,174.4,370.9Zm-6.8,61V392.3a24.5,24.5,0,0,1-11.7,3l-3.1-.2.2,36.8Zm0-82.4V333.1a35,35,0,0,1-10.3-24.8,34.7,34.7,0,0,1,10.3-24.8V239.6L56.2,291.8v45a34.9,34.9,0,0,1,0,55.6v39.5H71V379.1a2.6,2.6,0,0,1,1.5-2.4l76-32.3V315.5l-73.9,33a2.5,2.5,0,0,1-2.5-.2,2.7,2.7,0,0,1-1.1-2.2V315.8a2.8,2.8,0,0,1,1.5-2.4L134,284.9a16.4,16.4,0,0,1-.2-2.2,10.4,10.4,0,0,1,20.8,0,10.5,10.5,0,0,1-10.4,10.4,10.3,10.3,0,0,1-7.8-3.6l-60.2,28v24.6l73.9-33a2.3,2.3,0,0,1,2.4.2,2.5,2.5,0,0,1,1.2,2.2v35.1h2.2A24.5,24.5,0,0,1,167.6,349.5Zm-18.2-66.8a5.2,5.2,0,0,0-5.2-5.2,5.1,5.1,0,0,0-5.2,5v.2a5.2,5.2,0,0,0,2.5,4.4,5,5,0,0,0,2.7.8A5.3,5.3,0,0,0,149.4,282.7Zm-1.6,149.2-.2-38.1a23.9,23.9,0,0,1-11.9-9.3l-21.6,8.1v12.8a8.7,8.7,0,0,1,6,8.3,8.6,8.6,0,0,1-6,8.3v9a2.9,2.9,0,0,1-.2.9Zm-10.1-77.2L76.2,380.8v20.3l57-21.2a24.4,24.4,0,0,1-1.7-9A24,24,0,0,1,137.7,354.7Zm-21.9,59a4.2,4.2,0,0,0-1.7-3.4,4.3,4.3,0,0,0-2.6-.9,3.9,3.9,0,0,0-2.6.9,4,4,0,0,0-1.8,3.4,4.4,4.4,0,0,0,1.8,3.5,4.5,4.5,0,0,0,2.6.8,5,5,0,0,0,2.6-.8A4.6,4.6,0,0,0,115.8,413.7ZM76.2,431.9H109a2.8,2.8,0,0,1-.1-.9v-9a8.7,8.7,0,0,1-6.1-8.3,8.8,8.8,0,0,1,6.1-8.3V394.5L76.2,406.6Zm13.5-197a28.2,28.2,0,0,0,10.9-36.4L77,212.7l-1.8,1.1L52.5,227.4a28.1,28.1,0,0,0,37.2,7.5Zm7.8,275.2a7.5,7.5,0,1,0-7.5,7.5A7.5,7.5,0,0,0,97.5,510.1ZM63.8,189.8a6.1,6.1,0,0,0,2-4.4,6.1,6.1,0,1,0-6.1,6.1h1.1A5.9,5.9,0,0,0,63.8,189.8ZM51,431.9V395.7a34.3,34.3,0,0,1-13,3.8v32.4Z"/>
    <g id="Wordmark">
      <polygon class="cls-5" points="274.6 517.3 257.7 460.3 241.9 460.3 241.9 578.2 257.7 578.2 257.7 501 278.4 568.1 290.4 568.1 290.4 460.3 274.6 460.3 274.6 517.3"/>
      <path class="cls-5" d="M341.7,469.2H329.8c-12.6,0-18.9,6.7-18.9,20.2v71.3h15.8V524.9h18.1v53.3h15.8V489.4C360.6,475.9,354.3,469.2,341.7,469.2Zm3.1,41.4H326.7V490.3q0-6.9,6.9-6.9h4.3q6.9,0,6.9,6.9Z"/>
      <path class="cls-5" d="M428.8,509.6V489.4c0-13.5-6-20.2-18.1-20.2H379.8v91.6h6.6v15.1a3.7,3.7,0,0,0,1,7.3,3.7,3.7,0,0,0,1-7.3V560.8h7.2V530.6h9.5l10.4,47.6h14.9l-11-49.1C425.7,526.4,428.8,519.9,428.8,509.6Zm-15.8-1c0,5.7-2.3,8.5-7,8.5H395.6V483.4H406c4.7,0,7,2.9,7,8.6Z"/>
      <polygon class="cls-5" points="534.5 550.3 521.7 460.3 506.1 460.3 525.2 578.2 543.9 578.2 563 460.3 547.4 460.3 534.5 550.3"/>
      <polygon class="cls-5" points="630.2 460.3 614.4 460.3 614.4 555.4 651.9 555.4 651.9 541.1 630.2 541.1 630.2 460.3"/>
      <polygon class="cls-5" points="683.3 460.3 667.5 460.3 667.5 568.1 705 568.1 705 553.8 683.3 553.8 683.3 460.3"/>
      <path class="cls-5" d="M477.3,523.3q0,6.9-6.9,6.9h-4.3q-6.9,0-6.9-6.9V469.2H443.5v55c0,12.8,5.6,19.5,16.9,20.2v33.8h15.8V544.4c11.3-.7,16.9-7.4,16.9-20.2v-55H477.3Z"/>
      <path class="cls-5" d="M213.5,463.8a3.7,3.7,0,0,0-1-7.3,3.7,3.7,0,0,0-3.7,3.7,3.8,3.8,0,0,0,2.7,3.6v15.5h-6.9v88.8h6.9v15.5a3.7,3.7,0,0,0,1,7.3,3.8,3.8,0,0,0,3.7-3.7,3.9,3.9,0,0,0-2.7-3.6V568.1h6.9V479.3h-6.9Z"/>
      <path class="cls-5" d="M586.7,463.8a3.7,3.7,0,0,0-1-7.3,3.8,3.8,0,0,0-3.7,3.7,3.9,3.9,0,0,0,2.7,3.6v15.5h-6.9v88.8h6.9v15.5a3.7,3.7,0,0,0,1,7.3,3.7,3.7,0,0,0,3.7-3.7,3.7,3.7,0,0,0-2.7-3.6V568.1h6.9V479.3h-6.9Z"/>
      <path class="cls-5" d="M172.1,525.2v-.8c7.5-1.5,11.3-5.7,11.3-12.5V481.6q0-21.3-21-21.3H120.6a3.8,3.8,0,1,0,0,1.9h14.8V520H120.6a3.7,3.7,0,0,0-7.3,1,3.7,3.7,0,0,0,7.3,1h14.8v54.3H120.6a3.5,3.5,0,0,0-3.5-2.7,3.6,3.6,0,0,0-3.7,3.7,3.7,3.7,0,0,0,7.2,1h46.5c12,0,18-5.8,18-17.5v-22C185.1,532.1,180.7,527.6,172.1,525.2Zm-20.9-50.6h9.4c4.7,0,7,2.8,7,8.5v26c0,5.7-3,8.6-9,8.6h-7.4Zm18.1,84.3q0,5.1-6.3,5.1H151.2V532h8.7c6.3,0,9.4,2.8,9.4,8.3Z"/>
      <path class="cls-5" d="M778.3,567.4a3.7,3.7,0,0,0-3.6,2.7h-15V564H736.4V532.3h20.7V518H736.4V474.6h23.3V460.3H720.6v6.1h-15a3.7,3.7,0,0,0-7.3,1,3.7,3.7,0,0,0,7.3,1h15V578.2h39.1v-6.1h15a3.7,3.7,0,0,0,7.3-1A3.8,3.8,0,0,0,778.3,567.4Z"/>
    </g>
  </g>
</svg>
