<svg xmlns="http://www.w3.org/2000/svg" xmlns:xlink="http://www.w3.org/1999/xlink" width="222.7" height="361.5" viewBox="0 0 222.7 361.5">
  <defs>
    <style>
      .cls-1 {
        fill: none;
      }

      .cls-18, .cls-2 {
        fill: #b98c02;
      }

      .cls-3 {
        fill: #ffde17;
      }

      .cls-4 {
        fill: #8a96ab;
      }

      .cls-5 {
        fill: #d8b405;
      }

      .cls-6 {
        fill: #b8c1ca;
      }

      .cls-7 {
        fill: #ddd;
      }

      .cls-8 {
        clip-path: url(#clip-path);
      }

      .cls-9 {
        fill: #324f6b;
      }

      .cls-10 {
        fill: #113654;
      }

      .cls-11 {
        clip-path: url(#clip-path-2);
      }

      .cls-12 {
        fill: #d04248;
      }

      .cls-13 {
        fill: #bc353f;
      }

      .cls-14 {
        clip-path: url(#clip-path-3);
      }

      .cls-15 {
        fill: #c5e6f9;
      }

      .cls-16 {
        fill: #aadef7;
      }

      .cls-17 {
        clip-path: url(#clip-path-4);
      }

      .cls-18 {
        stroke: #d8b405;
        stroke-miterlimit: 10;
        stroke-width: 2px;
      }

      .cls-19 {
        clip-path: url(#clip-path-5);
      }
    </style>
    <clipPath id="clip-path" transform="translate(-0.8 3.8)">
      <rect class="cls-1" y="145.5" width="214.3" height="43.8" transform="translate(214.3 334.9) rotate(180)"/>
    </clipPath>
    <clipPath id="clip-path-2" transform="translate(-0.8 3.8)">
      <path class="cls-1" d="M30.4,190.4h0l.3-.9c.4-1,.9-2,1.3-3.1L81.3,67c29.6,13.7,61.1,9.3,61.1,9.3l40.7,112.8a40.7,40.7,0,0,1,2.8,14.6,78.6,78.6,0,0,1-17.6,49.7,19.8,19.8,0,0,0-15.8,9.6,55.1,55.1,0,0,1-9.2,10.8,79.5,79.5,0,0,1-72.9-.1,50.2,50.2,0,0,1-9-10.7,20.1,20.1,0,0,0-15.7-9.6,78.6,78.6,0,0,1-17.6-49.7A40.4,40.4,0,0,1,30.4,190.4Z"/>
    </clipPath>
    <clipPath id="clip-path-3" transform="translate(-0.8 3.8)">
      <path class="cls-1" d="M56.4,35.1c0,22.6,21.8,37.7,52.9,37.7s53.6-.6,54.3-30.1C164.1,20,140.4,0,109.3,0S56.4,12.4,56.4,35.1Z"/>
    </clipPath>
    <clipPath id="clip-path-4" transform="translate(-0.8 3.8)">
      <path class="cls-1" d="M108.5,303.6h0c7.5,0,13.2-7.5,16.2-16.4,4-11.8,9-32.2,7.9-44.7s-10.3-25.7-24.1-25.7h0c-13.8,0-22.4,12.1-24.1,25.7s4.3,33.5,7.9,44.7C95.1,296.1,100.9,303.6,108.5,303.6Z"/>
    </clipPath>
    <clipPath id="clip-path-5" transform="translate(-0.8 3.8)">
      <rect class="cls-1" y="189.3" width="214.3" height="43.8" transform="translate(214.3 422.5) rotate(180)"/>
    </clipPath>
  </defs>
  <g id="Layer_2" data-name="Layer 2">
    <g id="Layer_1-2" data-name="Layer 1">
      <g>
        <g>
          <g>
            <g>
              <path class="cls-2" d="M206.2,59.4a9.5,9.5,0,0,0-13.3-1.2,9.4,9.4,0,0,0-1.2,13.2l2.5-2.1a6.1,6.1,0,0,1,.8-8.6,6.2,6.2,0,0,1,8.7.8Z" transform="translate(-0.8 3.8)"/>
              <path class="cls-3" d="M208.2,56.9a12.6,12.6,0,1,0-19.4,16l3.3-2.8a8.4,8.4,0,0,1,1.1-11.6,8.3,8.3,0,0,1,11.6,1.1Z" transform="translate(-0.8 3.8)"/>
              <polygon class="cls-2" points="202.9 65.3 204 63.4 207.4 60.6 205.4 63.2 202.9 65.3"/>
              <polygon class="cls-4" points="191.4 73.9 193.4 73.1 190.9 75.2 188 76.7 191.4 73.9"/>
            </g>
            <g>
              <path class="cls-5" d="M211.6,72.8a9.4,9.4,0,1,1-18.7,1.6l3.2-.3A6.2,6.2,0,1,0,208.4,73Z" transform="translate(-0.8 3.8)"/>
              <path class="cls-3" d="M214.9,73.2a12.7,12.7,0,0,1-11.5,13.6,12.6,12.6,0,0,1-13.6-11.4l4.3-.4a8.2,8.2,0,0,0,16.4-1.4Z" transform="translate(-0.8 3.8)"/>
              <polygon class="cls-2" points="207.6 76.8 209.7 77.4 214.1 77 210.9 76.6 207.6 76.8"/>
              <polygon class="cls-4" points="193.4 78.8 195.4 77.9 192.1 78.2 189 79.1 193.4 78.8"/>
            </g>
            <g>
              <g>
                <circle class="cls-4" cx="191.3" cy="77.3" r="4.9"/>
                <polygon class="cls-4" points="192 72.2 193.3 72.8 192 73.8 192 72.2"/>
                <polygon class="cls-4" points="192.9 82.1 194 81.3 192.6 80.5 192.9 82.1"/>
              </g>
              <ellipse class="cls-6" cx="190.6" cy="73.6" rx="5.6" ry="5.7" transform="translate(-6.3 20.2) rotate(-4.9)"/>
            </g>
          </g>
          <g>
            <path class="cls-6" d="M107.4,111.9c-2.5.4-5.2-3.6-5.2-8.7s1.1-9.1,3-9.4Z" transform="translate(-0.8 3.8)"/>
            <g>
              <path class="cls-6" d="M125.1,108.4l-8.6,2c-3,.6-6,1.1-9.1,1.5l-2.2-18.1a75.6,75.6,0,0,0,7.6-1.3c2.6-.5,5.2-1.1,7.7-1.8Z" transform="translate(-0.8 3.8)"/>
              <path class="cls-7" d="M107,93.6a6.9,6.9,0,0,1,3.2-.1,7.8,7.8,0,0,1,3.2,1.5,10.2,10.2,0,0,1,3.8,5.9,9.5,9.5,0,0,1-1.1,7,8.1,8.1,0,0,1-2.8,2.7,7.9,7.9,0,0,1-3.7,1,7.9,7.9,0,0,0,5.4-4.2,9.5,9.5,0,0,0,.8-6.2,9.9,9.9,0,0,0-3.1-5.4A8,8,0,0,0,107,93.6Z" transform="translate(-0.8 3.8)"/>
            </g>
            <g>
              <path class="cls-6" d="M141.9,103.4l-4.2,1.3-4.1,1.3c-2.8.9-5.7,1.6-8.5,2.4l-4.6-17.7,7.8-2.2,3.9-1.2,3.9-1.2Z" transform="translate(-0.8 3.8)"/>
              <path class="cls-7" d="M122.4,90.2a7.6,7.6,0,0,1,3.4-.5,9.4,9.4,0,0,1,7.7,6.8,9.7,9.7,0,0,1-.5,7.1,8.1,8.1,0,0,1-2.4,2.8,6.7,6.7,0,0,1-3.5,1.4,8.4,8.4,0,0,0,4.8-4.6,9.7,9.7,0,0,0,.2-6.3,10.2,10.2,0,0,0-3.6-5.1A8.2,8.2,0,0,0,122.4,90.2Z" transform="translate(-0.8 3.8)"/>
            </g>
            <g>
              <path class="cls-6" d="M158.1,97.4l-8,3.1-8.2,2.9-5.8-17.3,7.7-2.8,7.7-2.9Z" transform="translate(-0.8 3.8)"/>
              <path class="cls-7" d="M137.9,85.4a9.8,9.8,0,0,1,3.4-.7,8.8,8.8,0,0,1,3.5,1,10,10,0,0,1,4.6,5.3,9.7,9.7,0,0,1-.1,7.1,8.1,8.1,0,0,1-2.2,3,6.8,6.8,0,0,1-3.3,1.6,8,8,0,0,0,4.4-5,9.4,9.4,0,0,0-.1-6.2,10.4,10.4,0,0,0-3.9-4.9A8.5,8.5,0,0,0,137.9,85.4Z" transform="translate(-0.8 3.8)"/>
            </g>
            <g>
              <path class="cls-6" d="M174,90.9l-7.9,3.3-3.9,1.7-4.1,1.5-6.6-17,3.8-1.5,3.9-1.5,7.6-3.3Z" transform="translate(-0.8 3.8)"/>
              <path class="cls-7" d="M153.3,79.7a7.7,7.7,0,0,1,3.4-.8,7.1,7.1,0,0,1,3.5.7,10.8,10.8,0,0,1,4.9,5.2,10.2,10.2,0,0,1,.2,7.1,7.5,7.5,0,0,1-2,3,7.7,7.7,0,0,1-3.3,1.8,8.4,8.4,0,0,0,4.2-5.1,9.7,9.7,0,0,0-.5-6.3,10.2,10.2,0,0,0-4-4.7A8.7,8.7,0,0,0,153.3,79.7Z" transform="translate(-0.8 3.8)"/>
            </g>
            <g>
              <polygon class="cls-6" points="188.9 87.5 181.1 91.2 173.3 94.6 166 77.9 173.6 74.6 181.1 71 188.9 87.5"/>
              <path class="cls-7" d="M168.6,73.3a7.5,7.5,0,0,1,3.3-1,8.9,8.9,0,0,1,3.6.7,10.1,10.1,0,0,1,5,5,9.9,9.9,0,0,1,.5,7,8.3,8.3,0,0,1-2,3.2,7.5,7.5,0,0,1-3.1,1.8,8.2,8.2,0,0,0,4-5.2,9.4,9.4,0,0,0-.7-6.2A10.4,10.4,0,0,0,175,74,8.3,8.3,0,0,0,168.6,73.3Z" transform="translate(-0.8 3.8)"/>
            </g>
            <path class="cls-6" d="M189.7,83.7c2-.9,2-5.4-.2-10s-5.6-7.4-7.7-6.5Z" transform="translate(-0.8 3.8)"/>
          </g>
        </g>
        <g class="cls-8">
          <path class="cls-9" d="M.8,196.8a10.7,10.7,0,0,1,1.3-5.1l15.5-.4h0l.6-.8.4-.6.2-.2.6-.7h.1l.7-.7h0l.5-.4L8.7,185H8.1a47.2,47.2,0,0,1,7.2-4.5l14.9,1.3h.1l1.5-.7,1.2-.6h.4l4-1.6-8.3-4.1c3.7-1.3,7.6-2.4,11.9-3.5h0l12.4,3h.3l2.1-.5,8-1.5-3-4.7c4.9-.8,9.9-1.4,15.1-1.9h0l8.1,4.2c4-.4,8.1-.6,12.3-.7L99,164h16.2l2.8,4.8c4.1.1,8.2.3,12.2.7l8.1-4.2,4.9.5,5.9.8,4.3.6h0l-.3.5h0l-2.7,4.2,5.5,1h.1l2.4.4,2.4.6,12.4-3h0c4.3,1.1,8.3,2.2,12,3.5l-.7.3h0l-7.7,3.8.7.2h0l1.7.7h0l1.6.7a.5.5,0,0,1,.4.2l1.2.5,1.6.7,15-1.3h0a51.3,51.3,0,0,1,7.1,4.5l-.5.2h0l-12,2.8.4.4h0l.8.7h0l.6.7.2.2a2.1,2.1,0,0,1,.4.6l.6.8h1.5l14,.4h0a12.2,12.2,0,0,1,1.4,5.1h-.1l-15.1,1.3a8.5,8.5,0,0,1-1.2,3.6h.3l13.7,2.1h0a26.8,26.8,0,0,1-4.7,4.9l-15.7-.5a34.8,34.8,0,0,1-5,3l.6.3h0l9.9,3.3h-.3a86.4,86.4,0,0,1-10,4.1l-14-2.2c-2.5.8-5.2,1.5-8,2.2l3.9,3.1,1.8,1.4h-.1c-4.6,1.1-9.4,2-14.4,2.8l-10.5-3.6-9.9,1.1v.6h0v4.3h0c-5.5.4-11.1.8-16.9.9l-5.5-4.5H101.9l-5.6,4.5c-5.8-.1-11.4-.5-16.8-.9h0v-4.3h0v-.6l-9.9-1.1-10.5,3.6c-5.1-.8-10-1.8-14.6-2.8l5.8-4.5-8.1-2.2-14,2.2A91.7,91.7,0,0,1,18,214.9l10.6-3.6a31.1,31.1,0,0,1-5.1-3l-15.6.5a26.4,26.4,0,0,1-4.4-4.5h0l-.2-.2-.2-.3,14-2.1a12.7,12.7,0,0,1-1.2-3.6L.8,196.8Zm29.7.3h0c.2,5.7,6.8,10.9,17.8,15h0l2.4.8h.1l2.4.7h.2l2.4.7h.3l2.5.6H59l2.5.6.5.2,2.5.5h.7l2.4.5.8.2,2.3.4h1l2.3.4,1.2.2,2.2.3h1.3l2.2.3h1.4l2.1.3H86l2,.2h38.2l2-.2h1.6l2.1-.3h1.5l2.1-.3h1.3l2.2-.3,1.2-.2,2.3-.4h1l2.3-.4.9-.2,2.3-.5h.8l2.4-.5.6-.2,2.4-.5.4-.2,2.5-.6h.3l2.4-.7c.1,0,.2,0,.2-.1l2.4-.7h.2l2.3-.8h.1c10.9-4.1,17.5-9.3,17.8-15h0v-.3c0-13.1-34.3-23.8-76.7-23.8s-76.7,10.7-76.7,23.8Z" transform="translate(-0.8 3.8)"/>
          <polygon class="cls-9" points="205.4 182 205.4 188.6 192.8 191.5 212.7 194 212.7 200.6 194.2 198.9 210.3 201 210.4 207.6 205.6 212.6 194.7 209.2 195.5 212.1 195.5 218.7 185.1 222.9 171.1 220.7 168.8 220.8 168.7 227.4 154.3 230.2 143.8 226.5 133.9 227.7 131.6 218.6 153.6 216.4 176.5 209.2 184.6 198.4 186.1 186.8 190 182.6 205.4 182"/>
          <path class="cls-9" d="M117.9,229.7l-3.4-5.3-12.1-.9-22.9,5.3v-6.7l-6.1-1.4-13.4,3H44.6V217l-4.8-2.9-21.8.8v-6.6l-7.7-2.2-7.2-2.3v-6.6l.2-1.6L.8,196.8v-6.6l6.7-2.5.6-2.8v-6.7l13.5-1.3,4.5,9s.2,10.2,8.3,15.2,25.9,12.5,40.2,13,43.3,2.6,43.3,2.6Z" transform="translate(-0.8 3.8)"/>
          <polygon class="cls-9" points="28.3 171.6 28.3 178.3 38.2 181 69.5 176 59.2 173.4 28.3 171.6"/>
          <polygon class="cls-9" points="184.4 171.6 184.4 178.3 171.5 183.5 167.9 175.9 184.4 171.6"/>
          <path class="cls-4" d="M.8,190.2a10.2,10.2,0,0,1,1.3-5.1l15.5-.5h0l.6-.8.4-.5.2-.3.6-.6h.1l.7-.7h0l.5-.5-12-2.8H8.1a47.2,47.2,0,0,1,7.2-4.6L30.2,175h.1l1.5-.7,1.2-.5.4-.2,4-1.5-8.3-4.2c3.7-1.2,7.6-2.3,11.9-3.4h0l12.4,2.9h.3l2.1-.5,8-1.5-3-4.8c4.9-.7,9.9-1.3,15.1-1.8h0l8.1,4.1,12.3-.7,2.7-4.8h16.2l2.8,4.8,12.2.7,8.1-4.1,4.9.5,5.9.7,4.3.6h0l-.3.5h0l-2.7,4.3,5.5,1h.1l2.4.5,2.4.5,12.4-2.9h0c4.3,1.1,8.3,2.2,12,3.4l-.7.4h0l-7.7,3.8.7.2h0l1.7.7h0l1.6.6.4.2,1.2.5,1.6.8,15-1.4h0a51.3,51.3,0,0,1,7.1,4.6h-.5l-12,2.8.4.5h0l.8.7h0l.6.6c.1.1.2.2.2.3l.4.5.6.8h1.5l14,.4h0a11.5,11.5,0,0,1,1.4,5.1h-.1l-15.1,1.3a7.7,7.7,0,0,1-1.2,3.5h.3l13.7,2.1h0a24,24,0,0,1-4.7,4.9l-15.7-.4-5,3,.6.2h0l9.9,3.4h-.3a86.7,86.7,0,0,1-10,4l-14-2.2c-2.5.8-5.2,1.6-8,2.3l3.9,3,1.8,1.5h-.1q-6.9,1.5-14.4,2.7l-10.5-3.6q-4.8.8-9.9,1.2v.6h0v4.2h0c-5.5.5-11.1.8-16.9,1l-5.5-4.5H101.9l-5.6,4.5c-5.8-.2-11.4-.5-16.8-1h0v-4.2h0v-.6q-5.1-.5-9.9-1.2l-10.5,3.6c-5.1-.8-10-1.7-14.6-2.7l5.8-4.5c-2.9-.7-5.5-1.5-8.1-2.3l-14,2.2c-3.8-1.3-7.2-2.7-10.3-4.1l10.6-3.6a57.5,57.5,0,0,1-5.1-3l-15.6.4a22.9,22.9,0,0,1-4.4-4.4h0l-.2-.3c-.1-.1-.1-.2-.2-.2l14-2.2a11.2,11.2,0,0,1-1.2-3.5L.8,190.2Zm29.7.3h0c.2,5.7,6.8,10.9,17.8,14.9h0l2.4.9h.1l2.4.8h.2l2.4.7h.3l2.5.6H59l2.5.6H62l2.5.6h.7l2.4.5h.8l2.3.4,1,.2,2.3.4h1.2l2.2.3,1.3.2,2.2.2,1.4.2,2.1.2,1.6.2h2l1.8.2h34.6l1.8-.2h2l1.6-.2,2.1-.2,1.5-.2,2.1-.2,1.3-.2,2.2-.3h1.2l2.3-.4,1-.2,2.3-.4h.9l2.3-.5h.8l2.4-.6h.6l2.4-.6h.4l2.5-.6h.3l2.4-.7h.2l2.4-.8h.2l2.3-.8h.1c10.9-4,17.5-9.2,17.8-14.9h0v-.3c0-13.2-34.3-23.8-76.7-23.8S30.4,177,30.4,190.2C30.4,190.3,30.5,190.4,30.5,190.5Z" transform="translate(-0.8 3.8)"/>
        </g>
        <ellipse class="cls-10" cx="107" cy="294" rx="67" ry="67.5"/>
        <ellipse class="cls-4" cx="107" cy="294" rx="49.2" ry="49.6"/>
        <g class="cls-11">
          <polygon class="cls-12" points="148 73.9 201.9 204 186.5 254 140 287.1 104.2 295.5 61.3 284.5 23.7 242 21 188.5 72.8 55.8 148 73.9"/>
          <path class="cls-13" d="M196.1,188.2s-9,8.9-27.5,15.5c-6.1,2.2-35.3,9.7-64.5,8.9s-62-7.6-82.3-21.7l10.1,80.9,65.5,33.7,69.5-20.4L197,236Z" transform="translate(-0.8 3.8)"/>
        </g>
        <g class="cls-14">
          <rect class="cls-15" x="52.7" y="-2.4" width="114.5" height="78.56" transform="translate(219.2 77.6) rotate(180)"/>
          <path class="cls-16" d="M165.2,68.6s-41.8.3-63.7-14.3a157.3,157.3,0,0,0-44.4,6.3s24.2,19.2,53.4,19.9S152.6,79.2,165.2,68.6Z" transform="translate(-0.8 3.8)"/>
          <path class="cls-5" d="M56,12.1a30.2,30.2,0,0,1-1.6-2.9s19.5-12.6,54.1-12c38.7.7,53,12.9,53,12.9a293.7,293.7,0,0,1-58.9,25.6c-1.7,0-3.4-.2-5-.3L79.2,70.2S60.6,75.1,54.4,52.5C49.8,35.8,51.3,20.2,56,12.1Z" transform="translate(-0.8 3.8)"/>
          <path class="cls-3" d="M160.5,9.1a293.7,293.7,0,0,1-58.9,25.6C64.5,33.4,53.4,8.2,53.4,8.2s19.5-12.6,54.1-12C146.2-3.1,160.5,9.1,160.5,9.1Z" transform="translate(-0.8 3.8)"/>
          <ellipse class="cls-9" cx="148.7" cy="45.3" rx="2.8" ry="8.5"/>
          <rect class="cls-9" x="151.6" y="56" width="19.9" height="2.99" transform="translate(322.4 118.7) rotate(180)"/>
          <path class="cls-3" d="M107.8,13,78.2,69.2S59.6,74.1,53.4,51.5s-1.3-42.9,7.5-46S107.8,13,107.8,13Z" transform="translate(-0.8 3.8)"/>
        </g>
        <g class="cls-17">
          <rect class="cls-12" x="83.7" y="212.1" width="54.9" height="101.31" transform="translate(221.5 529.3) rotate(180)"/>
          <path class="cls-13" d="M134.6,249.7S127.5,278,108.5,278s-28.8-30-28.8-30l6.7,54.4,21.6,9.3,17.7-8.9Z" transform="translate(-0.8 3.8)"/>
        </g>
        <ellipse class="cls-18" cx="101.9" cy="42.3" rx="25.6" ry="25.1"/>
        <ellipse class="cls-13" cx="101.9" cy="42.3" rx="19" ry="18.6"/>
        <circle class="cls-6" cx="108" cy="113.5" r="17.8"/>
        <g>
          <g>
            <g>
              <path class="cls-2" d="M220.4,125.4a9.4,9.4,0,0,0-10.6-8.1,9.5,9.5,0,0,0-8,10.7l3.2-.5a6.2,6.2,0,0,1,12.2-1.7Z" transform="translate(-0.8 3.8)"/>
              <path class="cls-3" d="M223.5,124.2a12.6,12.6,0,0,0-25,3.5l4.4-.6a8.2,8.2,0,0,1,7-9.3,8.1,8.1,0,0,1,9.2,7Z" transform="translate(-0.8 3.8)"/>
              <polygon class="cls-2" points="216.4 129.6 218.4 128.6 222.7 128 219.7 129.2 216.4 129.6"/>
              <polygon class="cls-4" points="202.1 130.9 204.2 131.3 201 131.8 197.8 131.5 202.1 130.9"/>
            </g>
            <g>
              <path class="cls-5" d="M218.1,139.6a9.5,9.5,0,0,1-16.9-8.5l3,1.5a6.1,6.1,0,0,0,10.9,5.5Z" transform="translate(-0.8 3.8)"/>
              <path class="cls-3" d="M220.6,141.7a12.6,12.6,0,0,1-22.5-11.4l3.9,2a8.2,8.2,0,0,0,14.7,7.4Z" transform="translate(-0.8 3.8)"/>
              <polygon class="cls-2" points="214.4 141.9 215.9 143.5 219.8 145.5 217.3 143.4 214.4 141.9"/>
              <polygon class="cls-4" points="201.2 136.1 203.4 136.4 200.5 134.9 197.3 134.1 201.2 136.1"/>
            </g>
            <g>
              <g>
                <circle class="cls-4" cx="200.2" cy="133.7" r="4.9"/>
                <polygon class="cls-4" points="203.6 129.8 204.3 131 202.7 131.1 203.6 129.8"/>
                <polygon class="cls-4" points="199.1 138.7 200.5 138.6 199.6 137.1 199.1 138.7"/>
              </g>
              <ellipse class="cls-6" cx="199.7" cy="129.2" rx="5.7" ry="5.6" transform="translate(-6.5 252.9) rotate(-63.2)"/>
            </g>
          </g>
          <g>
            <path class="cls-6" d="M108.8,118.1c-2.3-1-2.5-5.8.2-10.1s5.6-7.2,7.4-6.4Z" transform="translate(-0.8 3.8)"/>
            <g>
              <path class="cls-6" d="M125.7,124.5l-8.4-2.9a84.9,84.9,0,0,1-8.5-3.5l7.6-16.5c2.3,1,4.7,2,7.2,2.9s5,1.7,7.5,2.5Z" transform="translate(-0.8 3.8)"/>
              <path class="cls-7" d="M118.1,102.3a7.8,7.8,0,0,1,2.8,1.6,8.5,8.5,0,0,1,1.9,3,9.9,9.9,0,0,1,.1,7,9.4,9.4,0,0,1-4.6,5.4,7.7,7.7,0,0,1-3.7.8,7.6,7.6,0,0,1-3.8-1.1,8.3,8.3,0,0,0,6.8-.7,9.2,9.2,0,0,0,4-4.9,10.9,10.9,0,0,0,.2-6.2A8.7,8.7,0,0,0,118.1,102.3Z" transform="translate(-0.8 3.8)"/>
            </g>
            <g>
              <path class="cls-6" d="M142.6,129l-4.2-1-4.2-1.1-8.5-2.4,5.4-17.5c2.6.8,5.2,1.6,7.8,2.2l3.9,1.1,4,.9Z" transform="translate(-0.8 3.8)"/>
              <path class="cls-7" d="M133,107.6a6.1,6.1,0,0,1,3.1,1.3,9.2,9.2,0,0,1,3,9.8,9.8,9.8,0,0,1-4.2,5.8,8.1,8.1,0,0,1-3.5,1.2,9.4,9.4,0,0,1-3.7-.7,8,8,0,0,0,6.5-1.4,9.1,9.1,0,0,0,3.5-5.3,10.2,10.2,0,0,0-.4-6.2A8.2,8.2,0,0,0,133,107.6Z" transform="translate(-0.8 3.8)"/>
            </g>
            <g>
              <path class="cls-6" d="M159.6,132.5c-2.9-.5-5.7-1-8.5-1.7s-5.7-1.1-8.5-1.8l4.2-17.8c2.6.7,5.3,1.2,8,1.8l8.1,1.5Z" transform="translate(-0.8 3.8)"/>
              <path class="cls-7" d="M148.7,111.7a8.1,8.1,0,0,1,3.3,1.1,9.9,9.9,0,0,1,2.4,2.6,10.1,10.1,0,0,1,1.1,7,9.7,9.7,0,0,1-3.8,6,8.5,8.5,0,0,1-3.4,1.4,6.8,6.8,0,0,1-3.7-.4,8.2,8.2,0,0,0,6.4-1.9,9.6,9.6,0,0,0,3.1-5.4,10.3,10.3,0,0,0-.7-6.2A8.5,8.5,0,0,0,148.7,111.7Z" transform="translate(-0.8 3.8)"/>
            </g>
            <g>
              <path class="cls-6" d="M176.6,135.2c-2.9-.3-5.7-.8-8.5-1.3l-4.3-.6-4.2-.8,3.3-18,4,.8,4.1.6,8.2,1.3Z" transform="translate(-0.8 3.8)"/>
              <path class="cls-7" d="M164.8,114.9a7.9,7.9,0,0,1,3.3,1,7.8,7.8,0,0,1,2.6,2.5,10,10,0,0,1,1.4,6.9,9.5,9.5,0,0,1-3.5,6.2,8.1,8.1,0,0,1-3.4,1.5,6.3,6.3,0,0,1-3.6-.2,8.2,8.2,0,0,0,6.2-2.1,9.5,9.5,0,0,0,2.9-5.6,10,10,0,0,0-1-6.1A8.1,8.1,0,0,0,164.8,114.9Z" transform="translate(-0.8 3.8)"/>
            </g>
            <g>
              <polygon class="cls-6" points="192.8 141.2 184.3 140.2 175.8 139 178.4 121 186.6 122.1 194.8 123 192.8 141.2"/>
              <path class="cls-7" d="M181.1,117.5a7.7,7.7,0,0,1,6.1,3.3,10.5,10.5,0,0,1,1.7,6.9,10.4,10.4,0,0,1-3.4,6.2,8,8,0,0,1-3.3,1.7,8.7,8.7,0,0,1-3.6-.1,7.8,7.8,0,0,0,6.1-2.4,9.8,9.8,0,0,0,1.5-11.7A7.6,7.6,0,0,0,181.1,117.5Z" transform="translate(-0.8 3.8)"/>
            </g>
            <path class="cls-6" d="M193.6,137.4c2.3.2,4.6-3.6,5.1-8.6s-.9-9.3-3.1-9.6Z" transform="translate(-0.8 3.8)"/>
          </g>
        </g>
        <g class="cls-19">
          <path class="cls-9" d="M.8,196.8a10.7,10.7,0,0,1,1.3-5.1l15.3-.4c4.6,2.6,8.9,5.9,13.6,8.3,1.8,4.7,8,9,17.3,12.5h0l2.4.8h.1l2.4.7h.2l2.4.7h.3l2.5.6H59l2.5.6.5.2,2.5.5h.7l2.4.5.8.2,2.3.4h1l2.3.4,1.2.2,2.2.3h1.3l2.2.3h1.4l2.1.3H86l2,.2h38.2l2-.2h1.6l2.1-.3h1.5l2.1-.3h1.3l2.2-.3,1.2-.2,2.3-.4h1l2.3-.4.9-.2,2.3-.5h.8l2.4-.5.6-.2,2.4-.5.4-.2,2.5-.6h.3l2.4-.7c.1,0,.2,0,.2-.1l2.4-.7h.2l2.3-.8h.1c10.9-4.1,17.5-9.3,17.8-15h0v-.3c4.1-2.1,8.1-4.3,12.4-6.2l.4.7h1.5l14,.4a12.2,12.2,0,0,1,1.4,5.1h-.1l-15.1,1.3a8.5,8.5,0,0,1-1.2,3.6h.3l13.7,2.1h0a26.8,26.8,0,0,1-4.7,4.9l-15.7-.5a34.8,34.8,0,0,1-5,3l.6.3h0l9.9,3.3h-.3a86.4,86.4,0,0,1-10,4.1l-14-2.2c-2.5.8-5.2,1.5-8,2.2l3.9,3.1,1.8,1.4h-.1c-4.6,1.1-9.4,2-14.4,2.8l-10.5-3.6-9.9,1.1v.6h0v4.3h0c-5.5.4-11.1.8-16.9.9l-5.5-4.5H101.9l-5.6,4.5c-5.8-.1-11.4-.5-16.8-.9h0v-4.3h0v-.6l-9.9-1.1-10.5,3.6c-5.1-.8-10-1.8-14.6-2.8l5.8-4.5-8.1-2.2-14,2.2A91.7,91.7,0,0,1,18,214.9l10.6-3.6a31.1,31.1,0,0,1-5.1-3l-15.6.5a26.4,26.4,0,0,1-4.4-4.5l-.2-.2-.2-.3,14-2.1a12.7,12.7,0,0,1-1.2-3.6L.8,196.8Z" transform="translate(-0.8 3.8)"/>
          <path class="cls-1" d="M205.6,185l-12,2.8.4.4h0l.8.7h0c-3.8,1.7-7.6,3.8-11.3,5.7C180,182.5,147.2,173,107.1,173c-42.3,0-76.7,10.7-76.7,23.8v.3c-4.1-2.2-7.8-5.1-11.7-7.4h0l.6-.7h.1l.7-.7h0l.5-.4L8.7,185H8.1a47.2,47.2,0,0,1,7.2-4.5l14.9,1.3h.1l1.5-.7,1.2-.6h.4l4-1.6-8.3-4.1c3.7-1.3,7.6-2.4,11.9-3.5l12.4,3h.3l2.1-.5,8-1.5-3-4.7c4.9-.8,9.9-1.4,15.1-1.9l8.1,4.2c4-.4,8.1-.6,12.3-.7L99,164h16.2l2.8,4.8c4.1.1,8.2.3,12.2.7l8.1-4.2,4.9.5,5.9.8,4.3.6-.3.5-2.7,4.2,5.5,1h.1l2.4.4,2.4.6,12.4-3c4.3,1.1,8.3,2.2,12,3.5l-.7.3h0l-7.7,3.8.7.2h0l1.7.7h0l1.6.7a.5.5,0,0,1,.4.2l1.2.5,1.6.7,15-1.3a51.3,51.3,0,0,1,7.1,4.5l-.5.2Z" transform="translate(-0.8 3.8)"/>
          <polygon class="cls-9" points="205.4 182 205.4 188.6 192.8 191.5 212.7 194 212.7 200.6 194.2 198.9 210.3 201 210.4 207.6 205.6 212.6 194.7 209.2 195.5 212.1 195.5 218.7 185.1 222.9 171.1 220.7 168.8 220.8 168.7 227.4 154.3 230.2 143.8 226.5 133.9 227.7 131.6 218.6 153.6 216.4 176.5 209.2 184.6 198.4 186.1 186.8 190 182.6 205.4 182"/>
          <path class="cls-9" d="M117.9,229.7l-3.4-5.3-12.1-.9-22.9,5.3v-6.7l-6.1-1.4-13.4,3H44.6V217l-4.8-2.9-21.8.8v-6.6l-7.7-2.2-7.2-2.3v-6.6l.2-1.6L.8,196.8v-6.6l6.7-2.5.6-2.8v-6.7l13.5-1.3,4.5,9s.2,10.2,8.3,15.2,25.9,12.5,40.2,13,43.3,2.6,43.3,2.6Z" transform="translate(-0.8 3.8)"/>
          <path class="cls-4" d="M.8,190.2a10.2,10.2,0,0,1,1.3-5.1l15.5-.5h0l.6-.8.4-.5.2-.3.6-.6h.1l.7-.7h0l.5-.5-12-2.8H8.1a47.2,47.2,0,0,1,7.2-4.6L30.2,175h.1l1.5-.7,1.2-.5.4-.2,4-1.5-8.3-4.2c3.7-1.2,7.6-2.3,11.9-3.4h0l12.4,2.9h.3l2.1-.5,8-1.5-3-4.8c4.9-.7,9.9-1.3,15.1-1.8h0l8.1,4.1,12.3-.7,2.7-4.8h16.2l2.8,4.8,12.2.7,8.1-4.1,4.9.5,5.9.7,4.3.6h0l-.3.5h0l-2.7,4.3,5.5,1h.1l2.4.5,2.4.5,12.4-2.9h0c4.3,1.1,8.3,2.2,12,3.4l-.7.4h0l-7.7,3.8.7.2h0l1.7.7h0l1.6.6.4.2,1.2.5,1.6.8,15-1.4h0a51.3,51.3,0,0,1,7.1,4.6h-.5l-12,2.8.4.5h0l.8.7h0l.6.6c.1.1.2.2.2.3l.4.5.6.8h1.5l14,.4h0a11.5,11.5,0,0,1,1.4,5.1h-.1l-15.1,1.3a7.7,7.7,0,0,1-1.2,3.5h.3l13.7,2.1h0a24,24,0,0,1-4.7,4.9l-15.7-.4-5,3,.6.2h0l9.9,3.4h-.3a86.7,86.7,0,0,1-10,4l-14-2.2c-2.5.8-5.2,1.6-8,2.3l3.9,3,1.8,1.5h-.1q-6.9,1.5-14.4,2.7l-10.5-3.6q-4.8.8-9.9,1.2v.6h0v4.2h0c-5.5.5-11.1.8-16.9,1l-5.5-4.5H101.9l-5.6,4.5c-5.8-.2-11.4-.5-16.8-1h0v-4.2h0v-.6q-5.1-.5-9.9-1.2l-10.5,3.6c-5.1-.8-10-1.7-14.6-2.7l5.8-4.5c-2.9-.7-5.5-1.5-8.1-2.3l-14,2.2c-3.8-1.3-7.2-2.7-10.3-4.1l10.6-3.6a57.5,57.5,0,0,1-5.1-3l-15.6.4a22.9,22.9,0,0,1-4.4-4.4h0l-.2-.3c-.1-.1-.1-.2-.2-.2l14-2.2a11.2,11.2,0,0,1-1.2-3.5L.8,190.2Zm29.7.3h0c.2,5.7,6.8,10.9,17.8,14.9h0l2.4.9h.1l2.4.8h.2l2.4.7h.3l2.5.6H59l2.5.6H62l2.5.6h.7l2.4.5h.8l2.3.4,1,.2,2.3.4h1.2l2.2.3,1.3.2,2.2.2,1.4.2,2.1.2,1.6.2h2l1.8.2h34.6l1.8-.2h2l1.6-.2,2.1-.2,1.5-.2,2.1-.2,1.3-.2,2.2-.3h1.2l2.3-.4,1-.2,2.3-.4h.9l2.3-.5h.8l2.4-.6h.6l2.4-.6h.4l2.5-.6h.3l2.4-.7h.2l2.4-.8h.2l2.3-.8h.1c10.9-4,17.5-9.2,17.8-14.9h0v-.3c0-13.2-34.3-23.8-76.7-23.8S30.4,177,30.4,190.2C30.4,190.3,30.5,190.4,30.5,190.5Z" transform="translate(-0.8 3.8)"/>
        </g>
      </g>
    </g>
  </g>
</svg>
