<svg xmlns="http://www.w3.org/2000/svg" xmlns:xlink="http://www.w3.org/1999/xlink" width="192.9" height="298.5" viewBox="0 0 192.9 298.5">
  <defs>
    <style>
      .cls-1, .cls-10, .cls-11, .cls-13, .cls-22, .cls-9 {
        fill: none;
      }

      .cls-2 {
        isolation: isolate;
      }

      .cls-3 {
        fill: #253c4f;
      }

      .cls-4 {
        clip-path: url(#clip-path);
      }

      .cls-5 {
        fill: #7f5ca1;
      }

      .cls-6 {
        fill: #654e91;
      }

      .cls-7 {
        fill: #c5e6f9;
      }

      .cls-8 {
        fill: #324f6b;
      }

      .cls-13, .cls-9 {
        stroke: #324f6b;
      }

      .cls-10, .cls-11, .cls-13, .cls-22, .cls-9 {
        stroke-miterlimit: 10;
      }

      .cls-22, .cls-9 {
        stroke-width: 3px;
      }

      .cls-10 {
        stroke: #2fb279;
      }

      .cls-11 {
        stroke: #654e91;
        stroke-width: 2px;
      }

      .cls-12, .cls-18 {
        fill: #ddd;
      }

      .cls-12 {
        mix-blend-mode: multiply;
      }

      .cls-13 {
        stroke-width: 4px;
      }

      .cls-14 {
        fill: #b8c1ca;
      }

      .cls-15 {
        fill: #4c3a7f;
      }

      .cls-16 {
        fill: #8a96ab;
      }

      .cls-17 {
        fill: #f4f4f4;
      }

      .cls-19 {
        fill: #2fb279;
      }

      .cls-20 {
        clip-path: url(#clip-path-2);
      }

      .cls-21 {
        fill: #d43d40;
      }

      .cls-22 {
        stroke: #ef8b8f;
      }
    </style>
    <clipPath id="clip-path">
      <path id="SVGID" class="cls-1" d="M165.8,249.7s-24.3,7-69.1,6.9-68.2-6.9-68.2-6.9S23,232.3,21,221.9c-2.5-12.5-2.9-28.5-2.9-28.5l9.4-30.3S30,123,32.3,109.5A414.2,414.2,0,0,1,49.9,41h94.6a347.5,347.5,0,0,1,17.4,68.5c1.9,13.7,5,54.2,5,54.2l9.4,29.7s-.3,16.6-2.8,28.5S165.8,249.7,165.8,249.7Z"/>
    </clipPath>
    <clipPath id="clip-path-2">
      <path id="SVGID-2" data-name="SVGID" class="cls-1" d="M150.4,36.7c0,4.1-23.9,7.4-53.3,7.4s-53.2-3.3-53.2-7.4S62.2,16.4,97.1,16.4,150.4,32.6,150.4,36.7Z"/>
    </clipPath>
  </defs>
  <g class="cls-2">
    <g id="Layer_1" data-name="Layer 1">
      <g>
        <rect class="cls-3" x="16" y="193.7" width="33.2" height="104.73" rx="16.6" transform="translate(65.2 492.2) rotate(-180)"/>
        <rect class="cls-3" x="144.6" y="193.7" width="33.2" height="104.73" rx="16.6"/>
        <g class="cls-4">
          <polygon class="cls-5" points="190.4 267.4 2.4 267.4 38.7 32.4 154.1 32.4 190.4 267.4"/>
          <rect class="cls-6" x="16.4" y="182.7" width="162.9" height="76.31"/>
          <path class="cls-7" d="M162,97.1s-16.7,9.8-65.1,9.8-64.5-9.8-64.5-9.8L44.1,35.2H150.3Z"/>
          <path class="cls-5" d="M27.5,163.1s19.2,9.5,68.2,9.5c51.2,0,71.2-9.5,71.2-9.5l9.4,30.3s-22.7,9.5-80.6,9.5c-55.7,0-77.6-9.5-77.6-9.5Z"/>
          <g>
            <ellipse class="cls-8" cx="76" cy="67.8" rx="9.1" ry="5.4" transform="translate(3.2 138.9) rotate(-86.1)"/>
            <line class="cls-9" x1="67.6" y1="57.3" x2="74.5" y2="62.9"/>
          </g>
          <g>
            <line class="cls-9" x1="124" y1="57.3" x2="117" y2="62.9"/>
            <ellipse class="cls-8" cx="116.8" cy="68.4" rx="5.4" ry="9.1" transform="translate(-4.4 8.1) rotate(-3.9)"/>
          </g>
          <path class="cls-10" d="M24.3,160.7s13.5,9.9,72.4,9.9,73.4-9.9,73.4-9.9"/>
          <path class="cls-11" d="M161.9,96.8s-16.7,9.8-65.1,9.8-64.5-9.8-64.5-9.8"/>
          <ellipse class="cls-12" cx="97.9" cy="42.4" rx="53.1" ry="10.2"/>
          <line class="cls-13" x1="84.7" y1="90.1" x2="108" y2="90.1"/>
          <path class="cls-10" d="M127.1,153.5s-7.2,2-29.9,2-30.9-2-30.9-2V118.3s6.9,2,28.9,2,31.9-2,31.9-2Z"/>
        </g>
        <path class="cls-14" d="M176,124.3c.7,12.3-11.5,13.4-13.3,13.5s-3.5-5.6-3.9-12.7.8-12.9,2.6-13S175.2,110.3,176,124.3Z"/>
        <path class="cls-6" d="M165.1,147.5l14,30.5,1.5,61.9-6.2,12.9-27.9.4S145.2,147.5,165.1,147.5Z"/>
        <path class="cls-15" d="M182.6,239.1a157.6,157.6,0,0,1-8.2,13.8c-.6-49.1,1-70.8,3.4-74.9S182,190,182.6,239.1Z"/>
        <path class="cls-6" d="M28.7,147.5,15,178l-1.8,61.9,6.2,12.9,27.9.4S48.6,147.5,28.7,147.5Z"/>
        <path class="cls-15" d="M11.6,239.1c1.7,3.5,6.7,11.7,8.1,13.8.6-49.1-1-70.8-3.4-74.9S12.2,190,11.6,239.1Z"/>
        <g>
          <ellipse class="cls-16" cx="151.4" cy="68.7" rx="2.3" ry="14.8" transform="translate(-11 33.2) rotate(-12.1)"/>
          <polygon class="cls-16" points="157.5 55.7 148.3 54.2 154.5 83.2 162.3 78.1 157.5 55.7"/>
          <ellipse class="cls-14" cx="159.9" cy="66.9" rx="1.8" ry="11.5" transform="translate(-10.5 35) rotate(-12.1)"/>
        </g>
        <g>
          <ellipse class="cls-16" cx="42.9" cy="68.7" rx="14.8" ry="2.3" transform="translate(-33.2 96.3) rotate(-77.9)"/>
          <polygon class="cls-16" points="36.8 55.7 46 54.2 39.8 83.2 32 78.1 36.8 55.7"/>
          <ellipse class="cls-14" cx="34.4" cy="66.9" rx="11.5" ry="1.8" transform="translate(-38.2 86.5) rotate(-77.9)"/>
        </g>
        <g>
          <g>
            <polygon class="cls-14" points="172.8 199.7 177.9 200.6 173.2 208.7 167.1 209.4 172.8 199.7"/>
            <polygon class="cls-17" points="171.7 197.7 172.8 199.7 167.1 209.4 169.6 218.8 167.7 219 165.3 208.9 171.7 197.7"/>
            <polygon class="cls-18" points="169.6 218.8 174.7 215.5 173.2 208.7 167.1 209.4 169.6 218.8"/>
          </g>
          <circle class="cls-19" cx="181.4" cy="198.3" r="10.3"/>
          <g>
            <polygon class="cls-14" points="182.7 219.6 182.8 216.7 189.5 209.5 190.4 212.9 182.7 219.6"/>
            <polygon class="cls-17" points="190.5 201.8 192.4 213.7 184.6 221.5 182.7 219.6 189.5 212.7 187.4 203 190.5 201.8"/>
            <polygon class="cls-14" points="189.5 212.7 188.4 210.4 187.2 204.4 187.4 203 189.5 212.7"/>
          </g>
          <g>
            <polygon class="cls-17" points="184.9 203.8 175.8 201.8 172.3 211.7 184.5 213.8 184.9 203.8"/>
            <polygon class="cls-18" points="181.7 222 184.5 213.8 172.3 211.7 172.1 220 181.7 222"/>
          </g>
        </g>
        <g>
          <path class="cls-14" d="M160.8,129.5c-.6-.6-.4-1.8.4-3.3a28.3,28.3,0,0,1,3.8-5.3,14.5,14.5,0,0,1,5.4-3.7c1.7-.6,3.2-.4,3.9.5Z"/>
          <g>
            <path class="cls-14" d="M168.8,139.9c-.6-.9-1.2-1.9-1.9-2.8l-1.9-2.7c-1.3-1.7-2.8-3.4-4.2-4.9l13.5-11.8a66.3,66.3,0,0,1,4.9,6.9c.8,1.1,1.5,2.3,2.2,3.5l2,3.7Z"/>
            <path class="cls-18" d="M175.6,119.3a7.9,7.9,0,0,1,1.7,3.1,7.3,7.3,0,0,1,0,3.6,8.6,8.6,0,0,1-3.9,5.4,10.6,10.6,0,0,1-6.4,1.8,7.9,7.9,0,0,1-3.1-.8,5.3,5.3,0,0,1-2.1-1.8,7.5,7.5,0,0,0,2.5,1.3,8.6,8.6,0,0,0,2.8.3,10.9,10.9,0,0,0,5.6-1.8,8.5,8.5,0,0,0,3.6-4.7A7.7,7.7,0,0,0,175.6,119.3Z"/>
          </g>
          <g>
            <path class="cls-14" d="M174.7,151.9l-1.3-3.1-1.4-3c-.5-1-1-2-1.6-3l-1.6-2.9,14.6-8.1,1.8,3.7c.5,1.2,1.1,2.5,1.6,3.8l1.4,3.9,1.2,3.9Z"/>
            <path class="cls-18" d="M184.2,133.5a6.8,6.8,0,0,1,1.1,3.4,7.8,7.8,0,0,1-.5,3.4,8.4,8.4,0,0,1-4.5,4.4,9.4,9.4,0,0,1-6.2.3,8.2,8.2,0,0,1-2.8-1.4,6,6,0,0,1-1.7-2.3,9.1,9.1,0,0,0,2.1,1.8,8.2,8.2,0,0,0,2.6,1,10.2,10.2,0,0,0,5.5-.6,8.2,8.2,0,0,0,4.1-3.7,7.4,7.4,0,0,0,.8-3A7.8,7.8,0,0,0,184.2,133.5Z"/>
          </g>
          <g>
            <path class="cls-14" d="M178.3,165c-.2-1.1-.4-2.2-.7-3.3a31.8,31.8,0,0,0-.8-3.3l-.5-1.7-.5-1.6c-.3-1.1-.7-2.1-1.1-3.2l14.7-4.8c.4,1.3.8,2.6,1.1,3.9l.4,2,.4,2c.3,1.4.5,2.7.7,4.1s.3,2.7.5,4Z"/>
            <path class="cls-18" d="M189.9,149a6.4,6.4,0,0,1,.5,3.4,6.8,6.8,0,0,1-1.1,3.2,7.2,7.2,0,0,1-4.7,3.4,8.4,8.4,0,0,1-5.8-1,10.6,10.6,0,0,1-2.3-1.9,6.6,6.6,0,0,1-1.2-2.7,6.3,6.3,0,0,0,1.6,2.3,11.4,11.4,0,0,0,2.3,1.5,8.1,8.1,0,0,0,5.1.5,6.8,6.8,0,0,0,4.3-2.8,6.1,6.1,0,0,0,1.2-2.7A8.6,8.6,0,0,0,189.9,149Z"/>
          </g>
          <g>
            <path class="cls-14" d="M179.5,178.7c-.1-1.2,0-2.3-.1-3.5s-.1-2.3-.2-3.4-.2-2.3-.4-3.4-.3-2.3-.5-3.4l14.2-1.9.3,4.1c.1,1.3,0,2.7.1,4s-.1,2.7-.1,4.1-.2,2.6-.3,4Z"/>
            <path class="cls-18" d="M192.6,165a8.2,8.2,0,0,1-.1,3.5,8.9,8.9,0,0,1-1.5,2.9,6.4,6.4,0,0,1-4.9,2.4,7.4,7.4,0,0,1-5-2,6.9,6.9,0,0,1-1.8-2.4,7.2,7.2,0,0,1-.7-2.8,5.8,5.8,0,0,0,1.2,2.5,5.2,5.2,0,0,0,1.7,1.9,7.4,7.4,0,0,0,4.6,1.6,6.4,6.4,0,0,0,4.3-2,6,6,0,0,0,1.6-2.4A7.9,7.9,0,0,0,192.6,165Z"/>
          </g>
          <g>
            <path class="cls-14" d="M178.3,192.5c.2-1.1.3-2.3.5-3.4a20.7,20.7,0,0,0,.3-3.5,20.7,20.7,0,0,0,.3-3.5c0-1.1.1-2.3.1-3.4l13,.6c-.1,1.3-.3,2.6-.4,4l-.6,3.9c-.2,1.3-.4,2.6-.7,3.9l-.9,3.9Z"/>
            <path class="cls-18" d="M192.3,181.2a7.8,7.8,0,0,1-.7,3.3,8.1,8.1,0,0,1-1.8,2.6,5.5,5.5,0,0,1-4.8,1.6,6.1,6.1,0,0,1-4.2-2.8,12.3,12.3,0,0,1-1.2-2.6,7.6,7.6,0,0,1-.1-3,6,6,0,0,0,.6,2.7,5.4,5.4,0,0,0,1.3,2.2,5.9,5.9,0,0,0,3.8,2.3,5.3,5.3,0,0,0,4.2-1.3,5.8,5.8,0,0,0,1.8-2A9.8,9.8,0,0,0,192.3,181.2Z"/>
          </g>
          <path class="cls-14" d="M178.3,192.5c-.3,1.9,1.9,4,5,4.8s6-.2,6.6-2.3Z"/>
        </g>
        <path class="cls-6" d="M144.1,36.7c-9-2.4-26.6-4-47-4s-38,1.6-47,4H43.8v3.4h.1c0,4.1,23.8,7.5,53.2,7.5s53.3-3.4,53.3-7.5V36.7Z"/>
        <g class="cls-20">
          <rect class="cls-5" x="42.3" y="11.9" width="109.9" height="32.68"/>
          <path class="cls-10" d="M64.7,17.1s-8,9.6-11.8,13.1-5.4,1.6-4.6-1.7,2.4-4.4,6.8-5.8,9.3-2.4,13.9-1.3l1.3.5c4.9,2.9-1.6,7.4-4.1,9.1a24.8,24.8,0,0,1-8.8,3.8,2.5,2.5,0,0,1-1.2-.1c-.8-.5-.1-1.8.7-2.3a27.6,27.6,0,0,1,15.8-6.3c2-.1,5,.3,5.4,2.8a8.6,8.6,0,0,1-.2,2.2l-.6,3.4A11.6,11.6,0,0,1,76,38.6c-.8,1.5-3.2,3.3-4.9,2.3s.5-4.8,2.5-6.8a17.5,17.5,0,0,1,5.3-3.5c2-1.1,4.8-2.6,7.2-1.9A6.7,6.7,0,0,1,89,31.1a19.6,19.6,0,0,1,3.4,7.3c.3,1.5.5,4.3-1.8,3.7s-2.6-3.6-1.2-6.5a13.6,13.6,0,0,1,3-4.1,10.9,10.9,0,0,1,7.4-2.7,17.1,17.1,0,0,1,14.8,8.4c.3.5.5,1.1.1,1.5a1.1,1.1,0,0,1-.8.2c-3.4-.1-5.5-4.1-5.3-7.5a4.5,4.5,0,0,1,.9-2.5,4.1,4.1,0,0,1,2.6-1.3,26.1,26.1,0,0,1,19.6,3.5c1.3.8,2.8,2.4,2,3.9a2.5,2.5,0,0,1-2.6,1,7.1,7.1,0,0,1-2.6-1.3l-6.2-4.2c-1.3-1-2.8-2.1-3-3.8a3.9,3.9,0,0,1,2.8-3.6,9.7,9.7,0,0,1,4.8,0c4.3.6,9.2.5,12.8,3.1.8.6,4.2,5.8.5,4s-15.6-12.8-15.6-12.8"/>
        </g>
        <g>
          <g>
            <ellipse class="cls-14" cx="97.5" cy="17.9" rx="20.9" ry="4.5"/>
            <path class="cls-14" d="M76.6,17.9v5.3c0,2.5,9.3,4.5,20.9,4.5s20.9-2,20.9-4.5V17.9Z"/>
          </g>
          <path class="cls-21" d="M114.9,18.2c-2.7,5.5-31.5,4.2-34.9,0C80,8.6,88.2,0,97.5,0S114.9,8.6,114.9,18.2Z"/>
          <path class="cls-22" d="M99.4,5.1s6.6.4,7.9,6"/>
        </g>
        <g>
          <g>
            <polygon class="cls-14" points="19.7 200.1 14.5 201 19.3 209.1 25.3 209.8 19.7 200.1"/>
            <polygon class="cls-17" points="20.7 198.1 19.7 200.1 25.3 209.8 22.9 219.2 24.8 219.4 27.2 209.2 20.7 198.1"/>
            <polygon class="cls-18" points="22.9 219.2 17.7 215.8 19.3 209.1 25.3 209.8 22.9 219.2"/>
          </g>
          <circle class="cls-19" cx="11" cy="198.7" r="10.3"/>
          <g>
            <polygon class="cls-14" points="9.7 220 9.6 217.1 2.9 209.8 2 213.3 9.7 220"/>
            <polygon class="cls-17" points="2 202.2 0 214.1 7.8 221.9 9.7 220 2.9 213.1 5 203.4 2 202.2"/>
            <polygon class="cls-14" points="2.9 213.1 4 210.8 5.3 204.8 5 203.4 2.9 213.1"/>
          </g>
          <g>
            <polygon class="cls-17" points="7.6 204.2 16.7 202.2 20.1 212.1 7.9 214.2 7.6 204.2"/>
            <polygon class="cls-18" points="10.7 222.4 7.9 214.2 20.1 212.1 20.3 220.4 10.7 222.4"/>
          </g>
        </g>
        <path class="cls-14" d="M17.6,124.3c-.7,12.3,11.6,13.4,13.3,13.5s3.5-5.6,3.9-12.7-.8-12.9-2.6-13S18.5,110.3,17.6,124.3Z"/>
        <g>
          <path class="cls-14" d="M19.4,117.7c.8-.9,2.2-1.1,3.9-.5a14.5,14.5,0,0,1,5.4,3.7,28.3,28.3,0,0,1,3.8,5.3c.8,1.5,1,2.7.4,3.3Z"/>
          <g>
            <path class="cls-14" d="M10.4,131.8c.6-1.3,1.3-2.5,2-3.7l2.1-3.5a66.3,66.3,0,0,1,4.9-6.9l13.5,11.8c-1.5,1.5-2.9,3.2-4.3,4.9l-2,2.7-1.9,2.7Z"/>
            <path class="cls-18" d="M31.8,130.6a5.3,5.3,0,0,1-2.1,1.8,7.8,7.8,0,0,1-3.1.7,11.2,11.2,0,0,1-6.4-1.7,8.9,8.9,0,0,1-3.8-5.4,7.3,7.3,0,0,1,0-3.6,7.9,7.9,0,0,1,1.8-3.1,8.1,8.1,0,0,0-.8,6.4,8.3,8.3,0,0,0,3.6,4.6,11,11,0,0,0,5.5,1.9,9.2,9.2,0,0,0,2.9-.4A5.5,5.5,0,0,0,31.8,130.6Z"/>
          </g>
          <g>
            <path class="cls-14" d="M4.4,147.1l1.2-3.9L7,139.3c.5-1.3,1.1-2.5,1.6-3.8l1.8-3.7,14.3,8L23,142.7c-.6,1-1.1,2-1.6,3l-1.5,3c-.4,1.1-.9,2.1-1.3,3.1Z"/>
            <path class="cls-18" d="M23.9,141.2a7.6,7.6,0,0,1-1.8,2.3,8.7,8.7,0,0,1-2.7,1.4,9.7,9.7,0,0,1-6.1-.2A7.8,7.8,0,0,1,9,140.3a8,8,0,0,1-.5-3.4,6.8,6.8,0,0,1,1.1-3.4,7.8,7.8,0,0,0-.5,3.3,7.3,7.3,0,0,0,.7,3,8,8,0,0,0,4,3.7,9.8,9.8,0,0,0,5.4.5,9.3,9.3,0,0,0,2.6-1A9.1,9.1,0,0,0,23.9,141.2Z"/>
          </g>
          <g>
            <path class="cls-14" d="M1.4,163.1c.2-1.3.3-2.7.5-4l.6-4.1.4-2,.5-2c.3-1.3.7-2.6,1-3.9l14.2,4.7L17.4,155l-.5,1.6-.5,1.7-.9,3.3c-.3,1.1-.4,2.2-.7,3.3Z"/>
            <path class="cls-18" d="M18,153.3a6.6,6.6,0,0,1-1.2,2.7,10.6,10.6,0,0,1-2.3,1.9A8.5,8.5,0,0,1,9,159a7,7,0,0,1-4.6-3.4,8,8,0,0,1-1-3.2,9.3,9.3,0,0,1,.5-3.4,8.6,8.6,0,0,0,.1,3.2,7.3,7.3,0,0,0,1.1,2.7,6.7,6.7,0,0,0,4.1,2.8,8.7,8.7,0,0,0,5-.6,14.3,14.3,0,0,0,2.2-1.5A7.9,7.9,0,0,0,18,153.3Z"/>
          </g>
          <g>
            <path class="cls-14" d="M1.5,179.2c-.1-1.3-.3-2.6-.3-4a26.7,26.7,0,0,1-.1-4c0-1.4,0-2.7.1-4.1s.1-2.7.2-4l13.4,1.8c-.2,1.1-.3,2.3-.5,3.4s-.3,2.3-.4,3.4-.2,2.3-.3,3.5-.1,2.3-.1,3.5Z"/>
            <path class="cls-18" d="M14.5,166.5a7.3,7.3,0,0,1-.7,2.9,8.1,8.1,0,0,1-1.7,2.4,6.9,6.9,0,0,1-4.7,2,6,6,0,0,1-4.6-2.4,8.7,8.7,0,0,1-1.4-2.9,8.3,8.3,0,0,1-.1-3.5,8.3,8.3,0,0,0,.6,3.2,7.2,7.2,0,0,0,1.4,2.4,5.8,5.8,0,0,0,4.1,1.9,6.5,6.5,0,0,0,4.3-1.5,10.5,10.5,0,0,0,1.7-1.9A7.6,7.6,0,0,0,14.5,166.5Z"/>
          </g>
          <g>
            <path class="cls-14" d="M4.2,194.9c-.4-1.3-.6-2.6-.9-3.9s-.6-2.6-.8-3.9l-.6-3.9a25.8,25.8,0,0,1-.4-4l12-.5c0,1.1,0,2.3.1,3.5s.1,2.3.2,3.5a21.6,21.6,0,0,0,.3,3.5c.2,1.1.3,2.3.5,3.5Z"/>
            <path class="cls-18" d="M13.5,180.3a7.6,7.6,0,0,1-.2,3,8.1,8.1,0,0,1-1.1,2.7,5.7,5.7,0,0,1-3.7,2.7A5,5,0,0,1,4.1,187a7.5,7.5,0,0,1-1.8-2.6,12.1,12.1,0,0,1-.7-3.3,13.3,13.3,0,0,0,1.1,3,8.7,8.7,0,0,0,1.7,2.1,4.9,4.9,0,0,0,3.9,1.2,4.9,4.9,0,0,0,3.4-2.1,7.8,7.8,0,0,0,1.2-2.2A12.7,12.7,0,0,0,13.5,180.3Z"/>
          </g>
          <path class="cls-14" d="M4.2,194.9c.6,2,3.3,3.1,6,2.4s4.7-2.8,4.4-4.6Z"/>
        </g>
        <g>
          <circle class="cls-19" cx="69.7" cy="161.3" r="3.3"/>
          <circle class="cls-19" cx="88.5" cy="162.2" r="3.3"/>
          <circle class="cls-19" cx="107.4" cy="162.3" r="3.3"/>
          <circle class="cls-19" cx="126.3" cy="161.3" r="3.3"/>
        </g>
      </g>
    </g>
  </g>
</svg>
