<svg xmlns="http://www.w3.org/2000/svg" xmlns:xlink="http://www.w3.org/1999/xlink" width="346.8" height="151" viewBox="0 0 346.8 151">
  <defs>
    <style>
      .cls-1 {
        fill: none;
      }

      .cls-2 {
        fill: #d4915e;
      }

      .cls-3 {
        fill: #e19a64;
      }

      .cls-4 {
        fill: #fcc45d;
      }

      .cls-5 {
        fill: #fcbc21;
      }

      .cls-6 {
        fill: #39b54a;
      }

      .cls-7 {
        fill: #009245;
      }

      .cls-8 {
        fill: #f19d85;
      }

      .cls-9 {
        fill: #fac4bd;
      }

      .cls-10 {
        fill: #c1272d;
      }

      .cls-11 {
        fill: #ffd48f;
      }

      .cls-12 {
        clip-path: url(#clip-path);
      }

      .cls-13 {
        fill: #bf7546;
      }
    </style>
    <clipPath id="clip-path" transform="translate(0 1.9)">
      <path class="cls-1" d="M333.5,44.3c-.7,8.1-4.7,19.4-20.5,25.2-21,7.7-112.3,2.9-158.8.8A262.4,262.4,0,0,0,111.7,72C57.7,78.6,17.3,75.5,11,52.3c-.2-1.1-.4-2.3-.5-3.4C4.5-10,171,1,171,1s16,0,86-1,76,35.2,76,35.2A29.1,29.1,0,0,1,333.5,44.3Z"/>
    </clipPath>
  </defs>
  <g id="Layer_2" data-name="Layer 2">
    <g id="Layer_1-2" data-name="Layer 1">
      <g>
        <path class="cls-2" d="M172.9,148s173,12,160-54.1c-6.3-24.4-46.7-27.6-100.6-20.7a241.5,241.5,0,0,1-42.5,1.7c-46.6-2.2-137.9-7.2-158.9.9-26,10.1-20,36.1-20,36.1s6,38.1,76,37.1S172.9,148,172.9,148Z" transform="translate(0 1.9)"/>
        <path class="cls-3" d="M172.9,143s173,12,160-54.1c-6.3-24.4-46.7-27.6-100.6-20.7a241.5,241.5,0,0,1-42.5,1.7c-46.6-2.2-137.9-7.2-158.9.9-26,10.1-20,36.1-20,36.1s6,38.1,76,37.1S172.9,143,172.9,143Z" transform="translate(0 1.9)"/>
        <polygon class="cls-4" points="24 99 88.2 137.6 148 99 24 99"/>
        <polygon class="cls-4" points="187 99 251.2 137.6 311 99 187 99"/>
        <polygon class="cls-5" points="24 95 88.2 133.6 148 95 24 95"/>
        <polygon class="cls-5" points="187 95 251.2 133.6 311 95 187 95"/>
        <path class="cls-6" d="M10.3,79.7,0,85.1s-.5,2.2,2.8,4.4a6.8,6.8,0,0,1,2.8,6.9c-1,5,1,11.7,10.4,10.3,9-4.3,11-11.2,18,0,5,5.2,19-3.4,19-3.4s0,6,13,8.6,24-6.9,25-8.6,3,7.8,12,9.5,14-6.9,14-6.9l19,6.9s7-12.1,13-11.3c0,0,4,15.6,20,7s14-9.6,25,.8c9,3.5,8-9.5,39,0,11,3.5,3-9.5,25-7.8,7,0,4,8.7,22-.8,9-4.4,7,8.6,26-1.8,10-2.6,16,6.1,22,1.8s-2-13,6-12.1l8,.8s-2-6,4-13-23-1.7-23-1.7S56.6,38,10.3,79.7Z" transform="translate(0 1.9)"/>
        <path class="cls-7" d="M10.3,72.7,0,78.1s-.5,2.2,2.8,4.4a6.8,6.8,0,0,1,2.8,6.9c-1,5,1,11.7,10.4,10.3,9-4.3,11-11.2,18,0,5,5.2,19-3.4,19-3.4s0,6,13,8.6S90,98,91,96.3s3,7.8,12,9.5,14-6.9,14-6.9l19,6.9s7-12.1,13-11.3c0,0,4,15.6,20,7s14-9.6,25,.8c9,3.5,8-9.5,39,0,11,3.5,3-9.5,25-7.8,7,0,4,8.7,22-.8,9-4.4,7,8.6,26-1.8,10-2.6,16,6.1,22,1.8s-2-13,6-12.1l8,.8s-2-6,4-13-23-1.7-23-1.7S56.6,31,10.3,72.7Z" transform="translate(0 1.9)"/>
        <path class="cls-8" d="M18.4,59.5S.4,79.3,30.3,87.6s104.1,8.2,153.3,0c34.7-3.7,95.5-3.7,109.9-3.7s47.3-1,34.7-24S82.6,27.8,18.4,59.5Z" transform="translate(0 1.9)"/>
        <path class="cls-9" d="M18.4,54.5S.4,74.3,30.3,82.6s104.1,8.2,153.3,0c34.7-3.7,95.5-3.7,109.9-3.7s47.3-1,34.7-24S82.6,22.8,18.4,54.5Z" transform="translate(0 1.9)"/>
        <ellipse class="cls-10" cx="89" cy="71.5" rx="53" ry="11.5"/>
        <ellipse class="cls-10" cx="235" cy="71.5" rx="53" ry="11.5"/>
        <path class="cls-11" d="M333.5,44.3c-.7,8.1-4.7,19.4-20.5,25.2-21,7.7-112.3,2.9-158.8.8A262.4,262.4,0,0,0,111.7,72C57.7,78.6,17.3,75.5,11,52.3c-.2-1.1-.4-2.3-.5-3.4C4.5-10,171,1,171,1s16,0,86-1,76,35.2,76,35.2A29.1,29.1,0,0,1,333.5,44.3Z" transform="translate(0 1.9)"/>
        <path class="cls-3" d="M333.5,44.3c-.7,8.1-4.7,19.4-20.5,25.2-21,7.7-112.3,2.9-158.8.8A262.4,262.4,0,0,0,111.7,72C57.7,78.6,17.3,75.5,11,52.3c-.2-1.1-.4-2.3-.5-3.4C16.1-3.3,171,7,171,7s16,0,86-1,76,35.2,76,35.2A24.8,24.8,0,0,1,333.5,44.3Z" transform="translate(0 1.9)"/>
        <g class="cls-12">
          <g>
            <path class="cls-13" d="M89,31a30.4,30.4,0,0,1-.6-10.4,35.3,35.3,0,0,1,2.8-10.1,26.2,26.2,0,0,1,6.4-8.8,19.4,19.4,0,0,1,4.8-2.8,12.5,12.5,0,0,1,5.4-.8,26.4,26.4,0,0,0-6.5,7,55.7,55.7,0,0,0-4.3,8c-1.3,2.8-2.5,5.7-3.8,8.7A82.5,82.5,0,0,1,89,31Z" transform="translate(0 1.9)"/>
            <path class="cls-13" d="M129,31a30.4,30.4,0,0,1-.6-10.4,35.3,35.3,0,0,1,2.8-10.1,26.2,26.2,0,0,1,6.4-8.8,19.4,19.4,0,0,1,4.8-2.8,12.5,12.5,0,0,1,5.4-.8,26.4,26.4,0,0,0-6.5,7,55.7,55.7,0,0,0-4.3,8c-1.3,2.8-2.5,5.7-3.8,8.7A82.5,82.5,0,0,1,129,31Z" transform="translate(0 1.9)"/>
            <path class="cls-13" d="M169,31a30.4,30.4,0,0,1-.6-10.4,35.3,35.3,0,0,1,2.8-10.1,26.2,26.2,0,0,1,6.4-8.8,19.4,19.4,0,0,1,4.8-2.8,12.5,12.5,0,0,1,5.4-.8,26.4,26.4,0,0,0-6.5,7,55.7,55.7,0,0,0-4.3,8c-1.3,2.8-2.5,5.7-3.8,8.7A82.5,82.5,0,0,1,169,31Z" transform="translate(0 1.9)"/>
            <path class="cls-13" d="M209,31a30.4,30.4,0,0,1-.6-10.4,35.3,35.3,0,0,1,2.8-10.1,26.2,26.2,0,0,1,6.4-8.8,19.4,19.4,0,0,1,4.8-2.8,12.5,12.5,0,0,1,5.4-.8,26.4,26.4,0,0,0-6.5,7,55.7,55.7,0,0,0-4.3,8c-1.3,2.8-2.5,5.7-3.8,8.7A82.5,82.5,0,0,1,209,31Z" transform="translate(0 1.9)"/>
            <path class="cls-13" d="M249,31a30.4,30.4,0,0,1-.6-10.4,35.3,35.3,0,0,1,2.8-10.1,26.2,26.2,0,0,1,6.4-8.8,19.4,19.4,0,0,1,4.8-2.8,12.5,12.5,0,0,1,5.4-.8,26.4,26.4,0,0,0-6.5,7,55.7,55.7,0,0,0-4.3,8c-1.3,2.8-2.5,5.7-3.8,8.7A82.5,82.5,0,0,1,249,31Z" transform="translate(0 1.9)"/>
          </g>
        </g>
      </g>
    </g>
  </g>
</svg>
